/* XPM */
static char *grass[] = {
/* columns rows colors chars-per-pixel */
"25 12 28 1 ",
"  c #5FA64C",
". c #5FA74C",
"X c #5EA64D",
"o c #60A74D",
"O c #61A84C",
"+ c #61A84D",
"@ c #62A84D",
"# c #62A94D",
"$ c #60A84E",
"% c #61A84E",
"& c #61A94E",
"* c #60A84F",
"= c #60A94F",
"- c #61A94F",
"; c #62A94E",
": c #62A94F",
"> c #61AA4E",
", c #61AA4F",
"< c #62AA4E",
"1 c #63AA4E",
"2 c #62AA4F",
"3 c #63AA4F",
"4 c #64AB4F",
"5 c #64AC4F",
"6 c #65AC4F",
"7 c #66AD4F",
"8 c #62AA50",
"9 c #63AA50",
/* pixels */
"&&&&&&4&oo&&&&&&4&&&7&&&&",
"&&&&o&&oo&&&&&&&8&&&&&&&&",
"&&&&&&&&o&&&&&&&8&&&7&&&&",
"&&&&&&&&oo8&&&&&9&&&7&&&&",
"&&4&&&&4o&9&&4o49&&89&&&8",
"&&&&&&&&o&&&&&&&&&&&7&&&&",
"&&&&o&&o &&&o&&&8&&&7&&&&",
"&&&&&&4& &&&&&&&&&&&7&&&&",
"4&44&&4&o&&&&&4&9&4&7&&&&",
"&o&&o&&& &88&&&&8o8&9&&88",
"&o&&&&&& &&&&&&&88&&7&&&&",
"&8&&o&&&oo&&&&&&9o&&4&&&&"
};
