/* XPM */
static char *_[] = {
/* columns rows colors chars-per-pixel */
"50 52 131 2 ",
"   c #020202",
".  c #050609",
"X  c #07080C",
"o  c #0C0C0D",
"O  c #0B0D16",
"+  c #0B0E1A",
"@  c #0E111E",
"#  c #121212",
"$  c #191717",
"%  c #161619",
"&  c #19181A",
"*  c #0F1222",
"=  c #131623",
"-  c #14192D",
";  c #181D34",
":  c #1A213D",
">  c #2E2E2E",
",  c #2F3130",
"<  c #353535",
"1  c #373835",
"2  c #393739",
"3  c #363939",
"4  c #3B393A",
"5  c #1D2442",
"6  c #212A4D",
"7  c #373B4D",
"8  c #263059",
"9  c #2E375D",
"0  c #313A5E",
"q  c #2B3664",
"w  c #2F3C6D",
"e  c #353E62",
"r  c #303C6E",
"t  c #3D4460",
"y  c #334176",
"u  c #34427A",
"i  c #444444",
"p  c #4D4D4D",
"a  c #535353",
"s  c #565858",
"d  c #5C5C5C",
"f  c #424862",
"g  c #4A4E62",
"h  c #5D5F68",
"j  c #4C5471",
"k  c #50597E",
"l  c #5F657E",
"z  c #626162",
"x  c #64666F",
"c  c #6D6D6E",
"v  c #626576",
"b  c #6D707F",
"n  c #7C7D7C",
"m  c #374581",
"M  c #3A4988",
"N  c #3E4E91",
"B  c #4B5789",
"V  c #4E5A8C",
"C  c #405196",
"Z  c #495791",
"A  c #415399",
"S  c #47589F",
"D  c #4C5C9E",
"F  c #6E7284",
"G  c #4557A2",
"H  c #495CAC",
"J  c #4B5FB2",
"K  c #5062AE",
"L  c #4C60B4",
"P  c #4E63B9",
"I  c #5166BB",
"U  c #5167C0",
"Y  c #546AC5",
"T  c #556CC9",
"R  c #586FD0",
"E  c #5A73D6",
"W  c #5C75DA",
"Q  c #5F79E1",
"!  c #617BE6",
"~  c #647FED",
"^  c #6580EE",
"/  c #6782F3",
"(  c #6884F6",
")  c #6A86FB",
"_  c #6B88FE",
"`  c #838484",
"'  c #83858D",
"]  c #878992",
"[  c #959595",
"{  c #959699",
"}  c #959D9C",
"|  c #9C9C9C",
" . c #A6A6A6",
".. c #A8A8A8",
"X. c #B6B6B6",
"o. c #BABABA",
"O. c #B5ECEE",
"+. c #BAEAEE",
"@. c #B5EBF3",
"#. c #BAEBF2",
"$. c #C3C3C2",
"%. c #CDCDCD",
"&. c #D0D1CE",
"*. c #D4D4D4",
"=. c #DDDDDD",
"-. c #C3EBEC",
";. c #CCEFEE",
":. c #D5E3E3",
">. c #D4ECED",
",. c #C4EDF2",
"<. c #CBEFF2",
"1. c #CEF0F4",
"2. c #D3F2F3",
"3. c #DBF3F4",
"4. c #D5F2F9",
"5. c #DAF6F8",
"6. c #DFF8FA",
"7. c #E3E3E3",
"8. c #E1ECEE",
"9. c #EBEBEB",
"0. c #E3F5F6",
"q. c #EAF7F6",
"w. c #EAF9F7",
"e. c #E4F6F9",
"r. c #EBF6F9",
"t. c #E7FAFB",
"y. c #EBF9FA",
"u. c #F2F2F2",
"i. c #F8F7F8",
"p. c #F4FCFC",
"a. c #FEFEFE",
/* pixels */
"_ _ _ _ _ _ _ _ _ _ _ _ _ _ _ _ _ _ _ _ _ _ _ _ _ _ _ _ _ _ _ _ _ _ _ _ _ _ _ _ _ _ _ _ _ _ _ _ _ _ ",
"_ _ _ _ _ _ _ _ _ _ _ _ _ _ _ _ _ _ _ _ _ _ _ _ _ _ _ _ _ _ _ _ _ _ _ _ _ _ _ _ _ _ _ _ _ _ _ _ _ _ ",
"_ _ _ _ _ _ _ _ _ _ _ _ _ _ _ _ _ _ _ _ _ _ _ _ _ _ _ _ _ _ _ _ _ _ _ _ _ _ _ _ _ _ _ _ _ _ _ _ _ _ ",
"_ _ _ _ _ _ _ _ _ _ _ _ _ _ _ _ _ _ _ _ _ _ _ _ _ _ _ _ _ _ _ _ _ _ _ _ _ _ _ _ _ _ _ _ _ _ _ _ _ _ ",
"_ _ _ _ _ _ _ _ _ _ _ _ _ _ _ _ _ _ _ _ _ _ _ _ _ _ _ _ _ _ _ _ _ _ _ _ _ _ _ _ _ _ _ _ _ _ _ _ _ _ ",
"_ _ _ _ _ _ _ _ _ _ _ _ _ _ _ _ _ _ _ _ _ _ _ _ _ _ _ _ _ _ _ _ _ _ _ _ _ _ _ _ _ _ _ _ _ _ _ _ _ _ ",
"_ _ _ _ _ _ _ _ _ _ _ _ _ _ _ _ _ _ _ _ _ _ _ ) _ _ _ _ _ _ _ _ _ _ _ _ _ _ _ _ _ _ _ _ _ _ _ _ _ _ ",
"_ _ _ _ _ _ _ _ _ _ _ _ _ _ _ _ _ _ _ _ q 5 5 5 5 5 5 5 5 u _ _ _ _ _ _ _ _ _ _ _ _ _ _ _ _ _ _ _ _ ",
"_ _ _ _ _ _ _ _ _ _ _ _ _ _ _ _ ) E R T 7 , > , , , < > > t T T W _ _ _ _ _ _ _ _ _ _ _ _ _ _ _ _ _ ",
"_ _ _ _ _ _ _ _ _ _ _ _ _ _ _ _ ) O     &.a.a.a.a.a.a.a.a.X.    ; ) _ _ _ _ _ _ _ _ _ _ _ _ _ _ _ _ ",
"_ _ _ _ _ _ _ _ _ _ _ _ _ _ ) J q { |  .9.a.a.a.a.a.a.a.a.7.| | ] q T _ _ _ _ _ _ _ _ _ _ _ _ _ _ _ ",
"_ _ _ _ _ _ _ _ _ _ _ _ _ ) ~ M % 9.a.a.a.a.a.a.a.a.a.a.a.a.a.a.%.% S ~ _ _ _ _ _ _ _ _ _ _ _ _ _ _ ",
"_ _ _ _ _ _ _ _ _ _ _ _ _ / . n a.a.a.a.a.a.a.a.a.a.a.a.a.a.a.a.a.a.s + ) _ _ _ _ _ _ _ _ _ _ _ _ _ ",
"_ _ _ _ _ _ _ _ _ _ _ _ _ / . n a.a.a.a.a.i.X.9.a.a.7.o.a.a.a.3.0.a.d O _ _ _ _ _ _ _ _ _ _ _ _ _ _ ",
"_ _ _ _ _ _ _ _ _ _ _ _ _ / X n a.a.a.a.a.u.. X.a.a.| # a.a.a.-.<.p.d + ) _ _ _ _ _ _ _ _ _ _ _ _ _ ",
"_ _ _ _ _ _ _ _ _ _ _ _ y % 9.u.a.a.a.a.a.u.  X.a.a.[ O a.a.a.p.6.-.8.=.O N _ _ _ _ _ _ _ _ _ _ _ _ ",
"_ _ _ _ _ _ _ _ _ _ _ _ r o a.a.a.a.a.a.a.u.  X.a.a.| # a.a.a.a.t.@.e.9.  M _ _ _ _ _ _ _ _ _ _ _ _ ",
"_ _ _ _ _ _ _ _ _ _ _ ) r o i.a.a.a.a.a.a.9.  X.a.a.{ # a.a.a.a.t.+.0.7.  M _ ) _ _ _ _ _ _ _ _ _ _ ",
"_ _ _ _ _ _ ) _ _ _ ! - ' *.a.a.a.a.a.a.a.a.*.u.a.a.9.=.a.a.a.a.p.q.a.u.{ v q q q q q A ) _ _ _ _ _ ",
"_ _ _ _ _ _ ) ~ I P G . [ a.a.a.a.a.a.a.a.a.a.a.a.a.a.a.a.a.a.a.a.a.a.a.a.n % # O # # 9 / ~ / _ _ _ ",
"_ _ _ _ ) ) _ Y         [ a.a.a.a.a.a.a.a.a.a.a.a.a.a.a.a.a.a.a.a.a.a.a.a.a.a.a.a.a.a. .    : ) _ _ ",
"_ _ _ _ Y 5 6 f X.X.X.X.=.a.a.a.a.a.a.a.a.a.a.a.a.a.a.a.a.a.a.a.a.a.a.a.a.a.a.a.a.a.a.&.n n b m E _ ",
"_ _ _ W D > > s a.a.a.a.a.a.a.a.a.a.a.a.a.a.a.a.a.a.a.a.a.a.a.a.a.a.a.a.a.a.a.a.a.a.y.a.a.a.$.  H _ ",
"_ _ ) = a a.a.a.a.a.a.a.a.a.a.a.a.a.a.a.a.a.a.a.a.a.a.a.a.a.a.a.a.a.a.a.a.a.a.a.a.p.-.>.a.a.$.  J _ ",
"_ E G h [ a.a.a.a.a.a.a.a.a.a.a.a.a.a.a.a.a.a.a.a.a.a.a.a.a.a.a.a.a.a.a.a.a.a.a.a.p.3.2.6.i.*.z V H ",
") N   =.a.a.a.a.a.a.a.a.a.a.a.a.a.a.a.a.a.a.a.a.a.a.a.a.a.a.a.a.a.a.a.a.a.a.a.a.a.a.a.0.#.r.a.a.a = ",
"_ N   7.a.a.a.a.a.a.a.a.a.a.a.a.a.a.a.a.a.a.a.a.a.a.a.a.a.a.a.a.a.a.a.a.a.a.a.a.a.a.a.r.@.r.a.a.a @ ",
"U B i 7.a.a.a.a.a.a.a.a.a.a.a.a.a.a.a.a.a.a.a.a.a.a.a.a.a.a.a.a.a.a.a.a.a.a.a.a.a.a.q.4.@.r.a.a.a @ ",
"X c a.a.a.a.a.a.a.a.a.a.a.a.a.a.a.a.a.a.a.a.a.a.a.a.a.a.a.a.a.a.a.a.a.a.a.a.a.a.a.p.-.@.+.t.a.a.a * ",
". c a.a.a.a.a.a.a.a.a.a.a.a.a.a.a.a.a.a.a.a.a.a.a.a.a.a.a.a.a.a.a.a.a.a.a.3.<.,.<.,.#.,.r.p.&.p Z U ",
"- x &.a.a.a.a.a.a.a.a.a.p.y.a.a.a.a.a.a.a.a.a.a.a.a.a.a.a.a.a.a.a.a.a.a.a.3.,.@.@.@.,.3.a.a.$.  J ) ",
") N   =.a.a.a.a.a.a.a.a.2.,.a.a.a.a.a.a.a.a.a.a.a.a.a.a.a.a.a.a.a.a.a.a.a.p.p.#.@.+.y.a.a.a.$.  J ) ",
"_ N . =.r.2.p.a.a.a.p.2.,.#.a.a.a.a.a.a.a.a.a.0.1.1.t.a.a.a.a.a.a.a.a.a.a.a.p.@.@.#.p.%.c c l N W _ ",
"_ C o &.>.-.p.a.p.p.t.O.+.-.a.a.a.a.a.a.a.a.a.1.O.O.3.a.a.a.a.a.a.a.a.a.a.a.a.O.@.@.i...  X 5 _ _ _ ",
"_ ) ) = s p.a.w.+.#.#.#.5.p.a.a.a.a.a.a.a.a.a.2.@.O.3.a.a.a.a.a.a.a.a.a.a.a.p.+.@.#.p...  Y ) _ _ _ ",
"_ _ ) M k ` ` } >.2.3.2.y.a.p.a.a.a.a.a.a.a.a.1.@.@.3.a.i.a.a.5.3.a.a.a.a.q.3.+.,.2.p...  T _ _ _ _ ",
"_ _ _ _ H     4 a.a.a.a.a.a.i.a.p.a.a.a.a.a.a.<.@.O.3.p.i.i.a.-.;.a.a.i.a.2.O.+.>.a.a. .  T _ _ _ _ ",
"_ _ _ _ ( ! ! I % $ # $ { a.a.0.-.i.a.a.a.y.-.@.#.t.c $ & d a.p.p.a.2.+.-.5.p.p.a.i.> 0 ! ) _ _ _ _ ",
"_ _ _ _ _ _ _ W 8 8 8 8 F  .i.q.<.0.e.e.t.3.@.,.3.p.z   6 j  . .X.i.5.1.1.0.i... .| e N _ _ _ _ _ _ ",
"_ _ _ _ _ _ _ _ ) ) _ ) w o u.a.p.-.@.O.@.+.@.0.a.a.z   W L     < i.a.a.a.a.i.o     Q _ _ _ _ _ _ _ ",
"_ _ _ _ _ _ _ _ _ _ _ _ W T 2 1 3 :.r.w.w.w.t.c 3 < V T ( ^ T T K 2 1 1 1 1 3 Y T T ) _ _ _ _ _ _ _ ",
"_ _ _ _ _ _ _ _ _ _ _ _ _ ( 5 : : X.$.$.$.$.$.g : : L _ _ _ _ _ W 5 ; : : : : ) _ _ _ _ _ _ _ _ _ _ ",
"_ _ _ _ _ _ _ _ _ _ _ _ _ _ _ _ _ O           P _ _ _ _ _ _ _ _ _ _ _ _ _ _ _ _ _ _ _ _ _ _ _ _ _ _ ",
"_ _ _ _ _ _ _ _ _ _ _ _ _ _ _ _ _ H H H H H H Q _ _ _ _ _ _ _ _ _ _ _ _ _ _ _ _ _ _ _ _ _ _ _ _ _ _ ",
"_ _ _ _ _ _ _ _ _ _ _ _ _ _ _ _ _ _ _ _ _ _ _ _ _ _ _ _ _ _ _ _ _ _ _ _ _ _ _ _ _ _ _ _ _ _ _ _ _ _ ",
"_ _ _ _ _ _ _ _ _ _ _ _ _ _ _ _ _ _ _ _ _ _ _ _ _ _ _ _ _ _ _ _ _ _ _ _ _ _ _ _ _ _ _ _ _ _ _ _ _ _ ",
"_ _ _ _ _ _ _ _ _ _ _ _ _ _ _ _ _ _ _ _ _ _ _ _ _ _ _ _ _ _ _ _ _ _ _ _ _ _ _ _ _ _ _ _ _ _ _ _ _ _ ",
"_ _ _ _ _ _ _ _ _ _ _ _ _ _ _ _ _ _ _ _ _ _ _ _ _ _ _ _ _ _ _ _ _ _ _ _ _ _ _ _ _ _ _ _ _ _ _ _ _ _ ",
"_ _ _ _ _ _ _ _ _ _ _ _ _ _ _ _ _ _ _ _ _ _ _ _ _ _ _ _ _ _ _ _ _ _ _ _ _ _ _ _ _ _ _ _ _ _ _ _ _ _ ",
"_ _ _ _ _ _ _ _ _ _ _ _ _ _ _ _ _ _ _ _ _ _ _ _ _ _ _ _ _ _ _ _ _ _ _ _ _ _ _ _ _ _ _ _ _ _ _ _ _ _ ",
"_ _ _ _ _ _ _ _ _ _ _ _ _ _ _ _ _ _ _ _ _ _ _ _ _ _ _ _ _ _ _ _ _ _ _ _ _ _ _ _ _ _ _ _ _ _ _ _ _ _ ",
"_ _ _ _ _ _ _ _ _ _ _ _ _ _ _ _ _ _ _ _ _ _ _ _ _ _ _ _ _ _ _ _ _ _ _ _ _ _ _ _ _ _ _ _ _ _ _ _ _ _ "
};
