/* XPM */
static char *back[] = {
/* columns rows colors chars-per-pixel */
"25 17 8 1 ",
"  c #010101",
". c #020101",
"X c #010201",
"o c #020201",
"O c #010102",
"+ c #020102",
"@ c #030102",
"# c #020202",
/* pixels */
"OOOOOOOOOOOOOOOOOOOOOOOOO",
"OOOOOOOOOOOOO@OOOOOOOOOOO",
"OOOOOOOO@OOO@OOOO@@OOOOOO",
"OOOO@OOOO@OOOO@OOOOOOOO@@",
"OO@OOOO@O@@OO@O@O@O@O@O@O",
"O@OO@OO@OOOOOOOOOOOOOOOOO",
"OO@OO@OOO@@O@OO@O@@O@O@O@",
"OOOOOOOOOOO@OO@O@OO@OOO@@",
"@OOOOOO@@OO@OO@@@O@O@OOO@",
"OO@OOOOO@OOOO@OOOOOOOO@OO",
"OOO@@OOOO@O@@O@OO@O@@O@@@",
"@OOOOOOOOOOOO@OO@OOOOOOOO",
"OOOOOOO@OOOOOOO@O@OOO@OOO",
"OOOOOOOOOOOOOOOOOOOOOOOOO",
"OOOOOOOOO@OOOOO@@O@OOOO@@",
"OO@OOO@OOOO@OO@OOOOOO@OO@",
"OOOOO@OOOOO@OO@O@OOOO@O@O"
};
