/* XPM */
static char *c[] = {
/* columns rows colors chars-per-pixel */
"50 52 57 1 ",
"  c #000001",
". c #483801",
"X c #604A02",
"o c #6D5502",
"O c #775D02",
"+ c #917001",
"@ c #A47102",
"# c #FF6C00",
"$ c #FF6E00",
"% c #A58003",
"& c #B68D03",
"* c #B99003",
"= c #EB8702",
"- c #FE8401",
"; c #FE8F02",
": c #FE9302",
"> c #FE9E02",
", c #D8A802",
"< c #FEA302",
"1 c #FEAD03",
"2 c #FEAE03",
"3 c #E5B304",
"4 c #EDB801",
"5 c #F2BC01",
"6 c #F4BD01",
"7 c #FDBF04",
"8 c #E3BA30",
"9 c #E0B937",
"0 c #FFC601",
"q c #FEC502",
"w c #FDC504",
"e c #F7C30E",
"r c #F9C40B",
"t c #D9B641",
"y c #D5B449",
"u c #D4B44A",
"i c #CFB252",
"p c #C6AE62",
"a c #C2AC68",
"s c #7B8FE3",
"d c #7C8FE1",
"f c #788DE8",
"g c #6B88FE",
"h c #738BF1",
"j c #708AF6",
"k c #AFA48A",
"l c #AAA292",
"z c #A8A295",
"x c #9E9DA7",
"c c #9C9CAA",
"v c #969AB4",
"b c #989BB1",
"n c #9298BB",
"m c #9198BD",
"M c #8693D0",
"N c #8292D6",
"B c #8091D9",
/* pixels */
"gggggggggggggggggggggggggggggggggggggggggggggggggg",
"gggggggggggggggggggggggggggggggggggggggggggggggggg",
"gggggggggggggggggggggggggggggggggggggggggggggggggg",
"gggggggggggggggggggggggggggggggggggggggggggggggggg",
"gggggggggggggggggggggggggggggggggggggggggggggggggg",
"gggggggggggggggggggggggggggggggggggggggggggggggggg",
"gggggggggggggggggggggggggggggggggggggggggggggggggg",
"gggggggggggggggggggggggggggggggggggggggggggggggggg",
"gggggggggggggggggggggggggggggggggggggggggggggggggg",
"gggggggggggggggggggggggggggggggggggggggggggggggggg",
"gggggggggggggggggggggggggggggggggggggggggggggggggg",
"gggggggggggggggggggggggggggggggggggggggggggggggggg",
"gggggggggggggggggggggfccccccdggggggggggggggggggggg",
"gggggggggggggggggggggmwqqqqwxggggggggggggggggggggg",
"ggggggggggggggggggggauqqqqqwtpjggggggggggggggggggg",
"ggggggggggggggggggggeqqqqqqwwwhggggggggggggggggggg",
"ggggggggggggggggggggeww;$$-wwwhggggggggggggggggggg",
"ggggggggggggggggggNnr72:--=*3wbMgggggggggggggggggg",
"ggggggggggggggggggaww2#<ww& %wwigggggggggggggggggg",
"ggggggggggggggggggaww2#<ww& %wwigggggggggggggggggg",
"ggggggggggggggggggaww2#<ww& %wwigggggggggggggggggg",
"ggggggggggggggggggaww2$<ww& %wwigggggggggggggggggg",
"ggggggggggggggggggaww2$<ww& %wwigggggggggggggggggg",
"ggggggggggggggggggaww2$<ww& %wwigggggggggggggggggg",
"ggggggggggggggggggaww1#<ww& %wwigggggggggggggggggg",
"ggggggggggggggggggaww1#<ww& %wwigggggggggggggggggg",
"ggggggggggggggggggaww1#<ww& %wwigggggggggggggggggg",
"ggggggggggggggggggaww1#<ww& %wwigggggggggggggggggg",
"ggggggggggggggggggaww2$<ww& %wwigggggggggggggggggg",
"ggggggggggggggggggaww2$<ww& %wwigggggggggggggggggg",
"ggggggggggggggggggaww2$<ww& %wwigggggggggggggggggg",
"ggggggggggggggggggaww2$<ww& %wwigggggggggggggggggg",
"ggggggggggggggggggaww2#<ww& %wwigggggggggggggggggg",
"ggggggggggggggggggaww2#<ww& %qwigggggggggggggggggg",
"ggggggggggggggggggmlr7>@ooO+,qkbgggggggggggggggggg",
"ggggggggggggggggggggewwX  .q0qhggggggggggggggggggg",
"ggggggggggggggggggggrqq5445qq0hggggggggggggggggggg",
"ggggggggggggggggggggu9qqqqqq8uhggggggggggggggggggg",
"gggggggggggggggggggggmqqqqqqxggggggggggggggggggggg",
"gggggggggggggggggggggdzzlzzzBggggggggggggggggggggg",
"gggggggggggggggggggggggggggggggggggggggggggggggggg",
"gggggggggggggggggggggggggggggggggggggggggggggggggg",
"gggggggggggggggggggggggggggggggggggggggggggggggggg",
"gggggggggggggggggggggggggggggggggggggggggggggggggg",
"gggggggggggggggggggggggggggggggggggggggggggggggggg",
"gggggggggggggggggggggggggggggggggggggggggggggggggg",
"gggggggggggggggggggggggggggggggggggggggggggggggggg",
"gggggggggggggggggggggggggggggggggggggggggggggggggg",
"gggggggggggggggggggggggggggggggggggggggggggggggggg",
"gggggggggggggggggggggggggggggggggggggggggggggggggg",
"gggggggggggggggggggggggggggggggggggggggggggggggggg",
"gggggggggggggggggggggggggggggggggggggggggggggggggg"
};
