/* XPM */
static char *e[] = {
/* columns rows colors chars-per-pixel */
"50 52 160 2 ",
"   c #000000",
".  c #020201",
"X  c #070401",
"o  c #020204",
"O  c #0D0702",
"+  c #090803",
"@  c #05060A",
"#  c #06070C",
"$  c #07070C",
"%  c #0C0B0D",
"&  c #291802",
"*  c #2C1B02",
"=  c #362002",
"-  c #392202",
";  c #382203",
":  c #14192E",
">  c #171D36",
",  c #191F39",
"<  c #1E2139",
"1  c #1B223E",
"2  c #1F243D",
"3  c #3F3026",
"4  c #452902",
"5  c #412804",
"6  c #4A2C02",
"7  c #4E2F04",
"8  c #443F13",
"9  c #4B3624",
"0  c #454015",
"q  c #45411A",
"w  c #6F4304",
"e  c #764602",
"r  c #704304",
"t  c #734504",
"y  c #774704",
"u  c #794A03",
"i  c #7B511D",
"p  c #6A4823",
"a  c #66482B",
"s  c #754F23",
"d  c #1E2647",
"f  c #1F2749",
"g  c #20284A",
"h  c #242A49",
"j  c #28325D",
"k  c #2C3868",
"l  c #2F3C70",
"z  c #364277",
"x  c #34427A",
"c  c #34427B",
"v  c #36447F",
"b  c #4A475F",
"n  c #464767",
"m  c #4B4B6B",
"M  c #484C74",
"N  c #804D04",
"B  c #834F05",
"V  c #855002",
"C  c #885303",
"Z  c #8F5604",
"A  c #A86404",
"S  c #B06903",
"D  c #B56B02",
"F  c #B36B04",
"G  c #B96E02",
"H  c #BA7007",
"J  c #BF7305",
"K  c #B57F10",
"L  c #807721",
"P  c #847A23",
"I  c #C57502",
"U  c #C07304",
"Y  c #C37504",
"T  c #D17C04",
"R  c #BD8611",
"E  c #968D35",
"W  c #A19735",
"Q  c #B6A82C",
"!  c #B8AA2E",
"~  c #BAAC2F",
"^  c #CD8D10",
"/  c #D79410",
"(  c #E98B05",
")  c #F08F05",
"_  c #F29003",
"`  c #F59102",
"'  c #F99401",
"]  c #FF9700",
"[  c #FE9902",
"{  c #FE9B03",
"}  c #FDAB0E",
"|  c #FDAF11",
" . c #FEAE10",
".. c #FEAE11",
"X. c #FDB012",
"o. c #FDBD1B",
"O. c #FEBD1B",
"+. c #F8BC1D",
"@. c #FDBE1C",
"#. c #C2B331",
"$. c #C6B730",
"%. c #C8B832",
"&. c #EBB921",
"*. c #EFBF24",
"=. c #FEC21F",
"-. c #D5C433",
";. c #DAC934",
":. c #FDC722",
">. c #FDCA24",
",. c #F9CD29",
"<. c #FDD32B",
"1. c #FAD22C",
"2. c #FDD62D",
"3. c #FDD82E",
"4. c #FDD92F",
"5. c #E2D036",
"6. c #EAD838",
"7. c #EEDC39",
"8. c #FDDC31",
"9. c #FDDF33",
"0. c #FDE034",
"q. c #F5E23B",
"w. c #FAE63B",
"e. c #FDE638",
"r. c #FCE83B",
"t. c #FEEA3B",
"y. c #FEEB3C",
"u. c #394988",
"i. c #3A4989",
"p. c #3B4B8C",
"a. c #3C4C8D",
"s. c #3D4D90",
"d. c #4C5281",
"f. c #4C558B",
"g. c #4B5FB1",
"h. c #4D61B5",
"j. c #4F63B5",
"k. c #4F64BB",
"l. c #5065BC",
"z. c #5268C2",
"x. c #536AC5",
"c. c #546BC7",
"v. c #556CCA",
"b. c #566DCC",
"n. c #5B73D6",
"m. c #5E77DF",
"M. c #667FE6",
"N. c #637DEA",
"B. c #637EEC",
"V. c #6880E2",
"C. c #6A84EE",
"Z. c #6783F4",
"A. c #6783F5",
"S. c #6884F6",
"D. c #6986F9",
"F. c #6A86FB",
"G. c #6B88FD",
"H. c #6B88FE",
"J. c #6C88FC",
"K. c #718AF2",
/* pixels */
"H.H.H.H.H.H.H.H.H.H.H.H.H.H.H.H.H.H.H.H.H.H.H.H.H.H.H.H.H.H.H.H.H.H.H.H.H.H.H.H.H.H.H.H.H.H.H.H.H.H.",
"H.H.H.H.H.H.H.H.H.H.H.H.H.H.H.H.H.H.H.H.H.H.H.H.H.H.H.H.H.H.H.H.H.H.H.H.H.H.H.H.H.H.H.H.H.H.H.H.H.H.",
"H.H.H.H.H.H.H.H.H.H.H.H.H.H.H.H.H.H.H.H.H.H.H.H.H.H.H.H.H.H.H.H.H.H.H.H.H.H.H.H.H.H.H.H.H.H.H.H.H.H.",
"H.H.H.H.H.H.H.H.H.H.H.H.H.H.H.H.H.H.H.H.H.H.H.H.H.H.H.H.H.H.H.H.H.H.H.H.H.H.H.H.H.H.H.H.H.H.H.H.H.H.",
"H.H.H.H.H.H.H.H.H.H.H.H.H.H.H.H.H.H.H.H.H.H.H.H.H.H.H.H.H.H.H.H.H.H.H.H.H.H.H.H.H.H.H.H.H.H.H.H.H.H.",
"H.H.H.H.H.H.H.H.H.H.H.H.H.H.H.H.H.H.H.H.H.H.H.H.H.H.H.H.H.H.H.H.H.H.H.H.H.H.H.H.H.H.H.H.H.H.H.H.H.H.",
"H.H.H.H.H.H.H.H.H.H.H.H.H.H.H.H.H.H.H.H.H.H.H.H.H.H.H.H.H.H.H.H.H.H.H.H.H.H.H.H.H.H.H.H.H.H.H.H.H.H.",
"H.H.H.H.H.H.H.H.H.H.H.H.H.H.H.H.H.H.H.H.H.H.H.S.A.A.A.S.H.H.H.H.H.H.H.H.H.H.H.H.H.H.H.H.H.H.H.H.H.H.",
"H.H.H.H.H.H.H.H.H.H.H.H.H.H.H.H.H.H.H.H.H.H.H.,       f H.H.H.H.H.H.H.H.H.H.H.H.H.H.H.H.H.H.H.H.H.H.",
"H.H.H.H.H.H.H.H.H.H.H.H.H.H.H.H.H.H.H.H.H.H.H.,       f H.H.H.H.H.H.H.H.H.H.H.H.H.H.H.H.H.H.H.H.H.H.",
"H.H.H.H.H.H.H.H.H.H.H.H.H.H.H.H.H.H.H.H.S., > W %.%.%.E > 1 H.H.H.H.H.H.H.H.H.H.H.H.H.H.H.H.H.H.H.H.",
"H.H.H.H.H.H.H.H.H.H.H.H.H.H.H.H.H.H.H.H.S.    $.t.t.t.Q   @ H.H.H.H.H.H.H.H.H.H.H.H.H.H.H.H.H.H.H.H.",
"H.H.H.H.H.H.H.H.H.H.H.H.H.H.H.H.H.H.H.H.S.    $.t.t.t.Q   @ H.H.H.H.H.H.H.H.H.H.H.H.H.H.H.H.H.H.H.H.",
"H.H.H.H.H.H.H.H.H.H.H.H.H.H.H.H.H.H.H.H.S.    %.t.t.t.Q   @ H.H.H.H.H.H.H.H.H.H.H.H.H.H.H.H.H.H.H.H.",
"H.H.H.H.H.H.H.H.H.H.H.H.H.H.H.H.H.H.B.l.j.0 0 -.t.t.t.%.8 q k.k.A.H.H.H.H.H.H.H.H.H.H.H.H.H.H.H.H.H.",
"H.H.H.H.H.H.H.H.H.H.H.H.H.H.H.H.H.H.k.  + t.t.t.t.t.t.t.t.q.    x.H.H.H.H.H.H.H.H.H.H.H.H.H.H.H.H.H.",
"H.H.H.H.H.H.G.D.D.D.D.D.D.D.D.D.S.D.j.  + w.t.t.t.t.t.t.t.q.    z.D.D.D.D.D.D.D.D.D.D.H.H.H.H.H.H.H.",
"H.H.H.H.H.H.G.c   o       o       o     + t.t.t.t.t.t.t.t.q.    o       o   o         a.H.H.H.H.H.H.",
"H.H.H.H.H.H.G.c                         + t.t.t.t.t.t.t.t.q.                          a.H.H.H.H.H.H.",
"H.H.H.H.H.H.G.c   = U U #.#.~ #.#.~ #.#.#.t.t.t.t.t.t.t.t.t.~ #.#.~ #.#.#.#.~ Y U &   p.H.H.H.H.H.H.",
"H.H.H.H.H.H.H.c   4 ] ] y.t.y.t.y.y.t.t.t.t.t.t.t.t.t.t.t.t.t.t.t.t.t.t.t.y.e.] ] =   i.H.H.H.H.H.H.",
"H.H.H.H.H.H.H.l.i.n u N +.=.0.t.t.t.t.t.w.L L 5.t.t.t.;.L P y.t.t.t.t.t.8.=.+.N N n v x.H.H.H.H.H.H.",
"H.H.H.H.H.H.H.H.G.k.  + ] ] 2.y.t.t.t.t.q.    %.t.t.t.Q   + y.t.t.t.t.t.<.] `     v.H.H.H.H.H.H.H.H.",
"H.H.H.H.H.H.H.G.G.v.2 2 J U *.2.0.t.t.t.q.    %.t.t.t.Q   + y.t.t.y.8.2.&.U H 1 1 n.H.H.H.H.H.H.H.H.",
"H.H.H.H.H.H.H.H.H.H.H.D.    I ] =.t.t.t.q.    $.t.t.t.Q   + y.t.t.t.O.] F   @ H.H.H.H.H.H.H.H.H.H.H.",
"H.H.H.H.H.H.H.H.H.H.H.D.o   Y ] =.t.t.t.q.    $.t.t.t.Q   + y.t.t.t.O.] F   # G.H.H.H.H.H.H.H.H.H.H.",
"H.H.H.H.H.H.H.H.H.H.H.H.D.D.< X C [ X.t.q.    $.t.t.t.Q   + y.t.} [ u X h D.D.G.H.H.H.H.H.H.H.H.H.H.",
"H.H.H.H.H.H.H.H.H.H.H.H.H.H.,   V ] X.y.q.    $.t.t.t.Q   + y.t.} ] e   f H.H.G.H.H.H.H.H.H.H.H.H.H.",
"H.H.H.H.H.H.H.H.H.H.H.H.H.H.,   V ] | y.t.Q ! 7.t.t.t.6.! ~ t.t.} ] e   f H.H.H.H.H.H.H.H.H.H.H.H.H.",
"H.H.H.H.H.H.H.H.H.H.H.H.H.H.,   V ] | t.t.t.y.y.t.t.t.t.t.t.t.t.} ] e   f H.H.H.H.H.H.H.H.H.H.H.H.H.",
"H.H.H.H.H.H.H.H.H.H.H.D.i.i.p y R O.>.t.t.t.t.t.t.t.t.t.t.t.t.t.:.@.K y a i.p.H.H.H.H.H.H.H.H.H.H.H.",
"H.H.H.H.H.H.H.H.H.H.H.D.    I ] =.t.t.t.y.t.t.t.t.t.t.t.t.t.t.t.t.y.@.] D   @ G.H.H.H.H.H.H.H.H.H.H.",
"H.H.H.H.H.H.H.H.H.H.H.S.    I ] =.t.t.t.t.t.t.8.3.3.3.8.t.t.t.t.t.t.@.[ D   @ H.H.H.H.H.H.H.H.H.H.H.",
"H.H.H.H.H.H.H.H.H.H.H.D.o   I ] =.t.t.t.t.t.t.} [ ] ] | t.t.t.t.t.t.O.] D   @ H.H.H.H.H.H.H.H.H.H.H.",
"H.H.H.H.H.H.H.H.H.H.H.D.    I [ =.t.t.y.t.t.t.} ] [ ] | y.y.t.y.t.t.O.] D   @ H.H.H.H.H.H.H.H.H.H.H.",
"H.H.H.H.H.H.H.H.H.l.# % _ _ 1.e.t.t.2.[ [ [ [ 5 O O O 7 { [ [ [ 2.t.t.e.,._ ( # # b.H.H.H.H.H.H.H.H.",
"H.H.H.H.H.H.H.H.H.k.  X ] ] 3.y.y.t.<.] ] ] [ ;       4 [ ] ] ] 3.t.t.t.<.] `     v.H.H.H.H.H.H.H.H.",
"H.H.H.H.H.H.H.H.H.k.  X ] ] | | X.X.^ 7 7 7 7 f.g.g.g.d.7 7 7 7 / X.X.X.} ] `     v.H.H.H.H.H.H.H.H.",
"H.H.H.H.H.H.H.H.H.k.  X ] ] ] ] ] ] G       o x.H.H.H.j.        I [ ] ] ] ] _ X   v.H.H.H.H.H.H.H.H.",
"H.H.H.H.H.H.H.x.s.m w t ' ] A Z Z Z s l l l k m.H.H.H.n.l l l l i Z Z Z S ] ' w r M s.b.H.H.H.H.H.H.",
"H.H.H.H.H.G.G.c   4 ] ] ] ] ;       d H.H.H.H.H.H.H.H.H.H.H.H.H.,       6 ] ] ] ] =   p.H.H.H.H.H.H.",
"H.H.H.H.H.J.K.z   ; T T T T 3 > : : k H.H.H.H.H.H.H.H.H.H.H.H.H.j : : > 9 T T T T *   i.H.H.H.H.H.H.",
"H.H.H.H.H.H.H.c             z.H.H.H.H.H.H.H.H.H.H.H.H.H.H.H.H.H.H.H.G.G.j.            a.H.H.H.H.H.H.",
"H.H.H.H.H.H.H.c             x.H.H.H.H.H.H.H.H.H.H.H.H.H.H.H.H.H.H.H.G.G.j.            i.H.H.H.H.H.H.",
"H.H.H.H.H.H.H.C.V.M.N.N.N.N.D.H.H.H.H.H.H.H.H.H.H.H.H.H.H.H.H.H.H.H.H.H.D.N.N.N.N.N.N.S.H.H.H.H.H.H.",
"H.H.H.H.H.H.H.H.H.H.H.H.H.H.H.H.H.H.H.H.H.H.H.H.H.H.H.H.H.H.H.H.H.H.H.H.H.H.H.H.H.H.H.H.H.H.H.H.H.H.",
"H.H.H.H.H.H.H.H.H.H.H.H.H.H.H.H.H.H.H.H.H.H.H.H.H.H.H.H.H.H.H.H.H.H.H.H.H.H.H.H.H.H.H.H.H.H.H.H.H.H.",
"H.H.H.H.H.H.H.H.H.H.H.H.H.H.H.H.H.H.H.H.H.H.H.H.H.H.H.H.H.H.H.H.H.H.H.H.H.H.H.H.H.H.H.H.H.H.H.H.H.H.",
"H.H.H.H.H.H.H.H.H.H.H.H.H.H.H.H.H.H.H.H.H.H.H.H.H.H.H.H.H.H.H.H.H.H.H.H.H.H.H.H.H.H.H.H.H.H.H.H.H.H.",
"H.H.H.H.H.H.H.H.H.H.H.H.H.H.H.H.H.H.H.H.H.H.H.H.H.H.H.H.H.H.H.H.H.H.H.H.H.H.H.H.H.H.H.H.H.H.H.H.H.H.",
"H.H.H.H.H.H.H.H.H.H.H.H.H.H.H.H.H.H.H.H.H.H.H.H.H.H.H.H.H.H.H.H.H.H.H.H.H.H.H.H.H.H.H.H.H.H.H.H.H.H.",
"H.H.H.H.H.H.H.H.H.H.H.H.H.H.H.H.H.H.H.H.H.H.H.H.H.H.H.H.H.H.H.H.H.H.H.H.H.H.H.H.H.H.H.H.H.H.H.H.H.H."
};
