/* XPM */
static char *ghost[] = {
/* columns rows colors chars-per-pixel */
"25 18 62 1 ",
"  c black",
". c #001463",
"X c #636363",
"o c #002AD4",
"O c #0C36DD",
"+ c #002FEA",
"@ c #0032F9",
"# c #0033FF",
"$ c #0436FF",
"% c #0537FF",
"& c #0638FF",
"* c #093BFF",
"= c #0B3CFF",
"- c #0F3FFF",
"; c #1040FF",
": c #1443FE",
"> c #1C4AFF",
", c #234FFF",
"< c #2651FB",
"1 c #2450FE",
"2 c #2B55FE",
"3 c #2C56FF",
"4 c #2F58FF",
"5 c #3059FF",
"6 c #3A61FD",
"7 c #4167FF",
"8 c #446AFF",
"9 c #476CFF",
"0 c #486CFD",
"q c #496DFD",
"w c #4C6FFD",
"e c #5375FC",
"r c #5879FF",
"t c #5A7BFF",
"y c #607FFC",
"u c #6E85DD",
"i c #6482FC",
"p c #6784FC",
"a c #7D96FB",
"s c #8B9FEF",
"d c #97ABFA",
"f c #9CB0FF",
"g c #A5B6FA",
"h c #A9B9FA",
"j c #B2C1F9",
"k c #B8C5F9",
"l c #BDC9F9",
"z c #DDDDDD",
"x c #C2CEFF",
"c c #CED6F8",
"v c #C8D3FF",
"b c #D4DDFF",
"n c #E4E4E4",
"m c #EAEAEA",
"M c #EFEFEF",
"N c #E4E8F8",
"B c #E8EBF8",
"V c #EFF1F7",
"C c #F1F1F1",
"Z c #F0F1F7",
"A c gray97",
"S c white",
/* pixels */
"AAAAAAAAAAAAAAAAAAAAAAAAA",
"AAAAAAAAAAi222iAAAAAAAAAA",
"AAAAAAAAeq:###:qeAAAAAAAA",
"AAAAAAVp&#######$pZAAAAAA",
"AAAAANa###########aNAAAAA",
"AAAAAc###$6t3##-rr$cAAAAA",
"AAAAAc###5vSf,;tSS9hBAAAA",
"AAAAZk###bSMns9SSnn<jAAAA",
"AAAAj####bSX .9SC  ojAAAA",
"AAAAj####bSX .9SC  ojAAAA",
"AAAAj####>xmu+*9SzO@jAAAA",
"AAAAj#####47,##=77$#jAAAA",
"AAAAj###############jAAAA",
"AAAAj###############jAAAA",
"AAAAj#&y$##6y6##&i$#jAAAA",
"AAAAj=wAq-#dAd#*wAw*jAAAA",
"AAAAlqAAA9,gAg1qAAA0lAAAA",
"AAAAAAAAAAAAAAAAAAAAAAAAA"
};
