/* XPM */
static char *p_l[] = {
/* columns rows colors chars-per-pixel */
"50 52 220 2 ",
"   c #2C2727",
".  c #2B2A2A",
"X  c #342626",
"o  c #3C2223",
"O  c #332C2C",
"+  c #3B2D2C",
"@  c #36312E",
"#  c #2D2E32",
"$  c #332D33",
"%  c #352E37",
"&  c #2F323C",
"*  c #343333",
"=  c #393635",
"-  c #3A3835",
";  c #31333B",
":  c #37383B",
">  c #3C3B3A",
",  c #461E1E",
"<  c #4E1C1C",
"1  c #5C1717",
"2  c #531A1A",
"3  c #5A1819",
"4  c #7C0D0D",
"5  c #631414",
"6  c #6B1213",
"7  c #6B161B",
"8  c #781218",
"9  c #4F1E24",
"0  c #581C23",
"q  c #621B24",
"w  c #7A1522",
"e  c #462729",
"r  c #572529",
"t  c #43312E",
"y  c #4A2C35",
"u  c #502C3D",
"i  c #473732",
"p  c #413D39",
"a  c #573734",
"s  c #5E3833",
"d  c #6C262B",
"f  c #643B35",
"g  c #733E38",
"h  c #42413F",
"j  c #48433A",
"k  c #5A4536",
"l  c #674838",
"z  c #73513C",
"x  c #323544",
"c  c #393946",
"v  c #35394B",
"b  c #383D56",
"n  c #523B52",
"m  c #7C3949",
"M  c #3D4152",
"N  c #3B425D",
"B  c #3B4363",
"V  c #3E476D",
"C  c #3F4971",
"Z  c #454342",
"A  c #494644",
"S  c #4B4947",
"D  c #46464B",
"F  c #4D4C49",
"G  c #514D4B",
"H  c #54524E",
"J  c #5C5449",
"K  c #4A4D59",
"L  c #5A5551",
"P  c #585755",
"I  c #5C5A55",
"U  c #615847",
"Y  c #665E4E",
"T  c #625C57",
"R  c #76684F",
"E  c #65625D",
"W  c #68655F",
"Q  c #7B6B56",
"!  c #474A68",
"~  c #585A66",
"^  c #424C74",
"/  c #434D7A",
"(  c #534B73",
")  c #615A72",
"_  c #696764",
"`  c #756B66",
"'  c #716D66",
"]  c #78746C",
"[  c #67677C",
"{  c #797876",
"}  c #8E0606",
"|  c #830A0B",
" . c #890909",
".. c #960404",
"X. c #9B0203",
"o. c #99060C",
"O. c #8C0D17",
"+. c #A00000",
"@. c #A80209",
"#. c #B3000C",
"$. c #BA000F",
"%. c #A8081A",
"&. c #B80316",
"*. c #A71B18",
"=. c #861623",
"-. c #901E2B",
";. c #B51222",
":. c #832833",
">. c #992531",
",. c #B92637",
"<. c #C40016",
"1. c #C50118",
"2. c #C90119",
"3. c #D3071F",
"4. c #CA0C23",
"5. c #C8182B",
"6. c #D7142B",
"7. c #ED1B33",
"8. c #F11D35",
"9. c #C5272F",
"0. c #88463C",
"q. c #94483F",
"w. c #86583F",
"e. c #E7354A",
"r. c #864844",
"t. c #9C4B40",
"y. c #905A41",
"u. c #AE4D49",
"i. c #B95847",
"p. c #86654B",
"a. c #9A6243",
"s. c #857458",
"d. c #A76847",
"f. c #BC744B",
"g. c #89766A",
"h. c #8C7D6A",
"j. c #AA7264",
"k. c #C55649",
"l. c #C65E4A",
"z. c #D85D4D",
"x. c #D6674E",
"c. c #D06E4E",
"v. c #C7784E",
"b. c #D87450",
"n. c #E0624F",
"m. c #E76851",
"M. c #E97754",
"N. c #D45B68",
"B. c #F85366",
"V. c #DB766F",
"C. c #8C826D",
"Z. c #998968",
"A. c #9D8F70",
"S. c #998B7E",
"D. c #A99170",
"F. c #BDA578",
"G. c #CF8052",
"H. c #D88352",
"J. c #E98757",
"K. c #E6905C",
"L. c #F1965F",
"P. c #D19065",
"I. c #C9A87B",
"U. c #EEA372",
"Y. c #F6AC74",
"T. c #455285",
"R. c #4A5688",
"E. c #4A5893",
"W. c #4C5B9B",
"Q. c #545B95",
"!. c #576394",
"~. c #6C738F",
"^. c #4E5FA2",
"/. c #515EA2",
"(. c #4F60A4",
"). c #5665A7",
"_. c #5263AC",
"`. c #5466B3",
"'. c #5867B2",
"]. c #5568B6",
"[. c #566ABC",
"{. c #596EC5",
"}. c #5C72CC",
"|. c #5E75D4",
" X c #5F77D8",
".X c #6076D5",
"XX c #6079DC",
"oX c #627CE3",
"OX c #647FE9",
"+X c #F17886",
"@X c #6681EE",
"#X c #6782F1",
"$X c #6884F5",
"%X c #6A87FB",
"&X c #6B88FE",
"*X c #878786",
"=X c #939293",
"-X c #B29792",
";X c #B3A483",
":X c #B4A996",
">X c #B0B1B6",
",X c #E3848F",
"<X c #CEBB8D",
"1X c #D0B38A",
"2X c #EDB593",
"3X c #E69CA5",
"4X c #D8A9AE",
"5X c #DCC59C",
"6X c #E7C394",
"7X c #D5C5AC",
"8X c #EACBAB",
"9X c #F0D3B1",
"0X c #CBCBCB",
"qX c #D7D0CA",
"wX c #D6D6D5",
"eX c #EDD6CE",
"rX c #F7E3C8",
"tX c #E4E1DE",
"yX c #F3E7D7",
"uX c #F7F3F2",
/* pixels */
"&X&X&X&X&X&X&X&X&X&X&X&X&X&X&X&X&X&X&X&X&X&X&X&X&X&X&X&X&X&X&X&X&X&X&X&X&X&X&X&X&X&X&X&X&X&X&X&X&X&X",
"&X&X&X&X&X&X&X&X&X&X&X&X&X&X&X&XOX{.'.[. X&X&X&X&XOX{.].[. X%X&X&X&X&X&X&X&X&X&X&X&X&X&X&X&X&X&X&X&X",
"&X&X&X&X&X&X&X&X&X&X&X&X&X&X&X&X}.V x v W.OX&X&X&X}.^ v v W.OX&X&X&X&X&X&X&X&X&X&X&X&X&X&X&X&X&X&X&X",
"&X&X&X&X&X&X&X&X&X&X&X&X&X&XOX{.T.x   . N /..XOX[.R.D > ; ! ^. X%X&X&X&X&X&X&X&X&X&X&X&X&X&X&X&X&X&X",
"&X&X&X&X&X&X&X&X&X&X&X&X&XOX|.! % X X X $ c )..XC M E E A : v (.%X%X&X&X&X&X&X&X&X&X&X&X&X&X&X&X&X&X",
"&X&X&X&X&X&X&X&X&X&X&X&X%X[.T.m >.>.-.=.w =.n R.~ ' A.C.G = & (.%X&X&X&X&X&X&X&X&X&X&X&X&X&X&X&X&X&X",
"&X&X&X&X&X&X&X&X&X&X&X&XOXR.y ,.8.8.6.2.1.&.w u ' ;X5X;XJ = & (.%X&X&X&X&X&X&X&X&X&X&X&X&X&X&X&X&X&X",
"&X&X&X&X&X&X&X&X&X&X&X&XOXT.t ,.8.6.3.2.2.1.%.>.;X7X9X:XL = & (.%X&X&X&X&X&X&X&X&X&X&X&X&X&X&X&X&X&X",
"&X&X&X&X&X&X&X&X&X@X X|.[.C @ >.9.%.%.*.%.%.#.5.V.8XeX:XI c B ].%X&X&X&X&X&X&X&X&X&X&X&X&X&X&X&X&X&X",
"&X&X&X&X&X&X&X&X&X{.C b N * . e r 0 e , e r | *.9.N.8X:XS / {.OX&X&X&X&X&X&X&X&X&X&X&X&X&X&X&X&X&X&X",
"&X&X&X&X&X&X&X@X{.!.L J U Y Y U Y Y Y Y U l d | &.9.P.j.d ( ].oX&X&X&X&X&X&X&X&X&X&X&X&X&X&X&X&X&X&X",
"&X&X&X&X&X&X&X|.^ Y Z.F.5X;X5X5X<X<XI.5XF.D.z , | @.*.*. .q b '.&X&X&X&X&X&X&X&X&X&X&X&X&X&X&X&X&X&X",
"&X&X&X&X&X&X&X}.M j R Z.Z.A.A.A.A.A.A.A.Z.Q k X 2 4 ..X.X.6 $ ^.&X&X&X&X&X&X&X&X&X&X&X&X&X&X&X&X&X&X",
"&X&X&X&X&X&X&X}.N # : - - > h > - i p - > i @ @ X <  .X...5 $ W.OX%X&X&X&X&X&X&X&X&X&X&X&X&X&X&X&X&X",
"&X&X&X&X&X&X&XOX_.W.E.B * _ C.M t z l @ I *Xh.w.i X 2 5 1 , # B /.XX&X&X&X&X&X&X&X&X&X&X&X&X&X&X&X&X",
"&X&X&X&X&X&X&X&X%X$X#XW.M =XwX_ k v.d.i *XtX2Xv.z + X     + + O v [.&X&X&X&X&X&X&X&X&X&X&X&X&X&X&X&X",
"&X&X&X&X&X&X&X&X&X&X$XQ.D =XwX' k v.d.j *XtX2XJ.l.0.+     l a.k c ].&X&X&X&X&X&X&X&X&X&X&X&X&X&X&X&X",
"&X&X&X&X&X&X&X&X&XOX.XQ.T :XqXh.z G.f.l S.eX2XM.x.t.t . . w.H.y.G ).oXOX&X&X&X&X&X&X&X&X&X&X&X&X&X&X",
"&X&X&X&X&X&X&X&X&X{.^ ` D.2X2XI.P.K.H.G.P.U.J.x.0.i X .   w.H.H.d.~ T. X&X&X&X&X&X&X&X&X&X&X&X&X&X&X",
"&X&X&X&X&X&X&X&X&X'.x p.U.Y.Y.Y.U.J.J.J.b.v.b.x.0.a O + s d.K.J.c.l N |.&X&X&X&X&X&X&X&X&X&X&X&X&X&X",
"&X&X&X&X&X&X&X&X&X`.c y.K.L.L.L.J.M.m.m.t.l d.H.x.t.r f i.b.J.M.z.f B |.&X&X&X&X&X&X&X&X&X&X&X&X&X&X",
"&X&X&X&X&X&X&XOX]./ & k a.c.M.J.x.i.q.q.f @ z d.c.x.r.t.z.m.M.l.r.~ ^.oX&X&X&X&X&X&X&X&X&X&X&X&X&X&X",
"&X&X&X&X&X&X&X|.V & # # t t.n.z.i.s + O @ X + k f.M.x.z.n.n.x.z M ].@X%X&X&X&X&X&X&X&X&X&X&X&X&X&X&X",
"&X&X&X&X&X&X&XoX_.E.E.B O s 0.0.g +     k w.y.a.c.M.m.k.q.0.:.) (. X&X&X&X&X&X&X&X&X&X&X&X&X&X&X&X&X",
"&X&X&X&X&X&X&X&X$X$X#X(.x # O t t t + t w.b.J.J.x.z.z.q.y $ c ).$X%X&X&X&X&X&X&X&X&X&X&X&X&X&X&X&X&X",
"&X&X&X&X&X&X&X&X&X&X&X X(.B o z t.t.q.t.l.M.m.x.q.g l a O B _.XX%X%X&X&X&X&X&X&X&X&X&X&X&X&X&X&X&X&X",
"&X&X&X&X&X&X&X$XoX X X X{.C = q.k.k.k.k.k.k.k.u.s . @ * = T.}..XoX$X%X%X&X&X&X&X&X&X&X&X&X&X&X&X&X&X",
"&X&X&X&X&X&X&X XT.B B B B x . y s f s s s f s a + * F L L K B B C |.%X%X&X&X&X&X&X&X&X&X&X&X&X&X&X&X",
"&X&X&X&X&X$X X'.) _ E I J p . . . * * . 9 9 X   * Z _ ' ' L - # x E.{.{.{.{. X%X&X&X&X&X&X&X&X&X&X&X",
"&X&X&X&X&XoXR.~ >X0X0X7XI.Y . . * G S O q O.0 $ S _ ] h.{ ' I p # x v b v N (.#X&X&X&X&X&X&X&X&X&X&X",
"&X&X&X&X&XXXV P 0XuXyX7XA.U . - Z F a d 8 =.r - L _ ] ] ] W H Y R ] { { { { ~.`. X&X&X&X&X&X&X&X&X&X",
"&X&X&X&X&XoXC ~ 0XrX8XZ.j O * F H = r %.w e - A I _ W _ _ H j Z.5XwXtXtXtXwX=XN _.%X&X&X&X&X&X&X&X&X",
"&X&X&X&X&X@X`.!.*X*Xh.U O # p S F * 0 %.w X = A G L L H F Y h.<XrXrXrXrXrXrXC.c (.$X&X&X&X&X&X&X&X&X",
"&X&X&X&X&X%X$X}.^ > * + X - Z j h . q &.O.e = j h A A > = s.6XrXyX9X6X6X6X6XC.M _.%X&X&X&X&X&X&X&X&X",
"&X&X&X&X&X&X&X@X]./ ; 0 w r * * # . q 4.o.6 e # * = h - @ s.6X9X8XD.Q Q Q Q [ _. X&X&X&X&X&X&X&X&X&X",
"&X&X&X&X&X&X&X&X%X`.x d ,.:.r e y n m ,.;.%.6 e o + > - @ s.I.1X;XU . . * > T.|.@X&X&X&X&X&X&X&X&X&X",
"&X&X&X&X&X&X&X&XOX`.x g.3XN.,.,.u.-X4X4XN.&.o.4 4 6 e . . j U U J - # - F E ~ C [.%X&X&X&X&X&X&X&X&X",
"&X&X&X&X&X&X&X&XOX`.x *XtX+X7.7.B.eXuXuX,X4.#.@.@.} 1 , , , , X     . - H ] E D E.}.@X&X&X&X&X&X&X&X",
"&X&X&X&X&X&X&X&X&X[.v *XwX+X6.7.B.eXuXuX,X5.<.<.<.#.o. . . .| <   . . . Z W ' ' P V }.&X&X&X&X&X&X&X",
"&X&X&X&X&X&X&X&XOX|.E.~.-Xk.4.3.e.,X3X3XN.3.2.2.2.$.@.X.X.+...1 . . * * > F E ' S v [.&X&X&X&X&X&X&X",
"&X&X&X&X&X&X&X&X&XOXoXQ.n -.1.2.4.6.5.9.4.4.2.2.2.$.@.+.+.+...1 . - h h > * j E Z v [.&X&X&X&X&X&X&X",
"&X&X&X&X&X&X&X&X&X&X%XW.+ 8 #.#.$.<.2.2.2.2.$.$.#.#.+.+.+.X...1 . * - h > . h F : v [.&X&X&X&X&X&X&X",
"&X&X&X&X&X&X&X&X&X&X%X/.c 7 ..X.@.$.<.<.<.<.@.o.X.X.X.+.+.+...5   . * h p . - M : N [.&X&X&X&X&X&X&X",
"&X&X&X&X&X&X&X&X&X&X%X.X/.n 3 3 6 o.#.#.#.@.| 3 1 6 ..+.+.+.X.| 5 o * H F p * : ^ `.oX&X&X&X&X&X&X&X",
"&X&X&X&X&X&X&X&X&X&X&X&XOXE.v x y 4 } } }  .5 o o 2 4 ..} } } } 4 r p I I A - & (.$X%X&X&X&X&X&X&X&X",
"&X&X&X&X&X&X&X&X&X&X&X&X%X.X[.[.Q.u 9 < < 2 6 4 4 6 2 < < < < < r U W W I A - & (.%X&X&X&X&X&X&X&X&X",
"&X&X&X&X&X&X&X&X&X&X&X&X&X&X&X&XXXT.b b b b q | | 6 o   . . * * - I ' ' E A - & (.%X&X&X&X&X&X&X&X&X",
"&X&X&X&X&X&X&X&X&X&X&X&X&X&X&X&XOX X|.|.|.{.! o , o   . . > L A > > F ' _ S * & (.%X&X&X&X&X&X&X&X&X",
"&X&X&X&X&X&X&X&X&X&X&X&X&X&X&X&X&X&X&X&X&XOX'.^ ^ V V C ^ ! H Z M N ! _ L h M C {.&X&X&X&X&X&X&X&X&X",
"&X&X&X&X&X&X&X&X&X&X&X&X&X&X&X&X&X&X&X&X&X&XOXoXoXoXoXoXXXR.x $ v _.].N * ; R. X#X&X&X&X&X&X&X&X&X&X",
"&X&X&X&X&X&X&X&X&X&X&X&X&X&X&X&X&X&X&X&X&X&X&X&X&X&X&X&X%X{.E.E.W. X@X^.T.R.{.$X&X&X&X&X&X&X&X&X&X&X",
"&X&X&X&X&X&X&X&X&X&X&X&X&X&X&X&X&X&X&X&X&X&X&X&X&X&X&X&X&X$XOXOX@X%X#X@X#X#X$X&X&X&X&X&X&X&X&X&X&X&X"
};
