/* XPM */
static char *p_l2[] = {
/* columns rows colors chars-per-pixel */
"50 52 231 2 ",
"   c #2E2727",
".  c #2B2A2A",
"X  c #372425",
"o  c #332C2B",
"O  c #3C2C2C",
"+  c #33322E",
"@  c #3C322D",
"#  c #2C2D32",
"$  c #332C32",
"%  c #2F303A",
"&  c #333332",
"*  c #3A3533",
"=  c #3D3A35",
"-  c #30323A",
";  c #3D3C3A",
":  c #4C1C1D",
">  c #531A1A",
",  c #5A1C1E",
"<  c #7C0C0C",
"1  c #661416",
"2  c #761216",
"3  c #6F221C",
"4  c #4A1F25",
"5  c #5A1D24",
"6  c #661A23",
"7  c #771622",
"8  c #452728",
"9  c #56242E",
"0  c #45352F",
"q  c #582532",
"w  c #413C34",
"e  c #4C3931",
"r  c #413E3B",
"t  c #563833",
"y  c #73252E",
"u  c #6C3C36",
"i  c #733D39",
"p  c #474337",
"a  c #43413E",
"s  c #4B463C",
"d  c #584537",
"f  c #5A523F",
"g  c #674537",
"h  c #7B423A",
"j  c #724D3A",
"k  c #78523C",
"l  c #313544",
"z  c #383946",
"x  c #35394B",
"c  c #353B52",
"v  c #4E3146",
"b  c #6C2740",
"n  c #3F424F",
"m  c #3C425C",
"M  c #3B4364",
"N  c #3E476E",
"B  c #3F4972",
"V  c #454442",
"C  c #494644",
"Z  c #4A4845",
"A  c #4D4B49",
"S  c #524E47",
"D  c #5A5245",
"F  c #54514D",
"G  c #4A4B56",
"H  c #4E515E",
"J  c #595755",
"K  c #5D5B56",
"L  c #66594B",
"P  c #76514A",
"I  c #615D54",
"U  c #615E59",
"Y  c #6B6149",
"T  c #74694C",
"R  c #65625B",
"E  c #6A6359",
"W  c #776A55",
"Q  c #776E59",
"!  c #7E7150",
"~  c #434866",
"^  c #434E7C",
"/  c #515072",
"(  c #694166",
")  c #5D6073",
"_  c #616162",
"`  c #6C6A66",
"'  c #726D66",
"]  c #78746B",
"[  c #686676",
"{  c #7C7972",
"}  c #8B0708",
"|  c #840A0B",
" . c #9A0507",
".. c #870F19",
"X. c #960B19",
"o. c #83111F",
"O. c #AB0007",
"+. c #A40308",
"@. c #A6091B",
"#. c #B40417",
"$. c #BE0012",
"%. c #BD0319",
"&. c #AE1216",
"*. c #8D1526",
"=. c #981726",
"-. c #B71B29",
";. c #872735",
":. c #922430",
">. c #C40219",
",. c #C60318",
"<. c #CA0119",
"1. c #D1061E",
"2. c #D40921",
"3. c #D80B23",
"4. c #D01328",
"5. c #E5142C",
"6. c #EB1C33",
"7. c #F31D35",
"8. c #CF2538",
"9. c #E52036",
"0. c #F72139",
"q. c #86443C",
"w. c #8B493D",
"e. c #92473E",
"r. c #85573E",
"t. c #D43C4D",
"y. c #F0364B",
"u. c #9B4B40",
"i. c #905541",
"p. c #AD5945",
"a. c #B75747",
"s. c #9C6646",
"d. c #8D6A52",
"f. c #887958",
"g. c #A76946",
"h. c #B8714B",
"j. c #877A67",
"k. c #867B74",
"l. c #A76169",
"z. c #C8594A",
"x. c #D25A4C",
"c. c #D95E4D",
"v. c #D54A57",
"b. c #F0485B",
"n. c #C6624B",
"m. c #D66A4E",
"M. c #C8764E",
"N. c #D7704F",
"B. c #D87750",
"V. c #E46B51",
"C. c #E87554",
"Z. c #DE5665",
"A. c #F7586A",
"S. c #CE6F6E",
"D. c #F86979",
"F. c #91825D",
"G. c #8D8165",
"H. c #97896A",
"J. c #948875",
"K. c #AA926B",
"L. c #A8956B",
"P. c #AA9A77",
"I. c #BBA66E",
"U. c #BAA17E",
"Y. c #CA855E",
"T. c #D68252",
"R. c #EB8757",
"E. c #E8925C",
"W. c #CC936B",
"Q. c #C3AA7A",
"!. c #C8B175",
"~. c #F3A56D",
"^. c #EFA77B",
"/. c #485487",
"(. c #4E548D",
"). c #495790",
"_. c #4A5893",
"`. c #4C5C9B",
"'. c #5B6592",
"]. c #656B80",
"[. c #4E5EA1",
"{. c #4F60A5",
"}. c #5464A5",
"|. c #5163AB",
" X c #5668B4",
".X c #5568B6",
"XX c #566ABC",
"oX c #596EC4",
"OX c #5B72CC",
"+X c #5E75D5",
"@X c #5F77D9",
"#X c #6179DD",
"$X c #637CE4",
"%X c #647FE9",
"&X c #6681EE",
"*X c #6782F1",
"=X c #6884F6",
"-X c #6A87FB",
";X c #6B88FE",
":X c #909091",
">X c #A7948B",
",X c #B6A58A",
"<X c #AAA9A9",
"1X c #B7B6B5",
"2X c #E39892",
"3X c #CAB28A",
"4X c #D9B98A",
"5X c #D2BE90",
"6X c #CFABA7",
"7X c #EEAFB2",
"8X c #DCC58B",
"9X c #DAC295",
"0X c #F6C38B",
"qX c #E6CB97",
"wX c #F4CF9A",
"eX c #E9D19C",
"rX c #D5C7B3",
"tX c #F4C6AF",
"yX c #F6D5A7",
"uX c #E9D5B6",
"iX c #F8E0BD",
"pX c #EEBEC3",
"aX c #C9C9C9",
"sX c #D8CDC4",
"dX c #DEDCDC",
"fX c #F0D6CF",
"gX c #F8E3C6",
"hX c #F7EADA",
"jX c #F6F0E6",
"kX c #F7F5F3",
"lX c #F8F8F8",
/* pixels */
";X;X;X;X;X;X;X;X;X;X;X;X;X;X;X;X;X;X;X;X;X;X;X;X;X;X-X-X;X;X;X;X;X;X;X;X;X;X;X;X;X;X;X;X;X;X;X;X;X;X",
";X;X;X;X;X;X;X;X;X;X;X;X;X;X%X%X$X$X%X=X;X;X;X;X-X%X$X#X$X=X;X;X;X;X;X;X;X;X;X;X;X;X;X;X;X;X;X;X;X;X",
";X;X;X;X;X;X;X;X;X;X;X;X;X=XOX(./.^ |.$X;X;X;X;X$X{.^ /._.OX-X;X;X;X;X;X;X;X;X;X;X;X;X;X;X;X;X;X;X;X",
";X;X;X;X;X;X;X;X;X;X;X;X=X%X`.z . . N oX%X-X-X%XoX~ $ # x [.%X=X;X;X;X;X;X;X;X;X;X;X;X;X;X;X;X;X;X;X",
";X;X;X;X;X;X;X;X;X;X;X=XOX_.m +   . x B |.$X$X{.^ G C a z ~ `.OX-X;X;X;X;X;X;X;X;X;X;X;X;X;X;X;X;X;X",
";X;X;X;X;X;X;X;X;X;X=X%X`.z O O X   X $ ~ oXoX~ V K E F r * x |.=X;X;X;X;X;X;X;X;X;X;X;X;X;X;X;X;X;X",
";X;X;X;X;X;X;X;X;X=XOX`.( ;.:.:.*.*.7 7 y / /.H E J.J.E a & l [.-X;X;X;X;X;X;X;X;X;X;X;X;X;X;X;X;X;X",
";X;X;X;X;X;X;X;X=X%X`.c y 9.9.9.4.,.%.%.*.q v ' :X9X5X] a % l [.=X;X;X;X;X;X;X;X;X;X;X;X;X;X;X;X;X;X",
";X;X;X;X;X;X;X*XOX`.M & ;.9.5.5.3.<.,.<.#.2 u.P.rXuXrX{ a & l {.-X;X;X;X;X;X;X;X;X;X;X;X;X;X;X;X;X;X",
";X;X;X;X-X-X-X&X_.l # . y 9.5.,.>.>.>.>.%.#.t.7XhXjXsXJ.a = x |.=X;X;X;X;X;X;X;X;X;X;X;X;X;X;X;X;X;X",
";X;X;X;X-X-XOX`.M # .   9 :.:.o.o.o.o.o.X.@.-.S.2XgXsX{ n N _.OX-X;X;X;X;X;X;X;X;X;X;X;X;X;X;X;X;X;X",
";X;X;X;X-X&X_.z & . . . o 0 8 o O O O X , } +.4.v.7XsX] % _.&X*X;X;X;X;X;X;X;X;X;X;X;X;X;X;X;X;X;X;X",
";X;X;X=XOX}.) Y T Q E Q Q Q E Q W W W L g 3 | +.8.S.S.q.9 /  X@X-X-X;X;X;X;X;X;X;X;X;X;X;X;X;X;X;X;X",
";X;X;X%X_.n W L.U.5X9X9X9X8X9X9X5X5X3XI.f.d > }  .&.=. .| 9 m  X-X;X;X;X;X;X;X;X;X;X;X;X;X;X;X;X;X;X",
";X;X;X$X/.& D F.L.P.P.P.P.P.P.P.P.P.L.F.T w X 1 <  .+. .} > l [.-X;X;X;X;X;X;X;X;X;X;X;X;X;X;X;X;X;X",
";X;X;X$X/.. @ p p p s s a p s s s s p p w .   X > <  .+.} > l {.=X;X;X-X;X;X;X-X;X;X;X;X;X;X;X;X;X;X",
";X-X-X%X[.N l . . . C _ A & @ d p + r K E j d o X 1 < < 1 : # B oX@X=X@XoX XoXXXoX+X=X-X;X;X;X;X;X;X",
";X-X-X-X$XoXB # . % { 1X:X; g h.r.e _ <X6XW.s.d   X : X X X . l M |.&X{.M c c c c `.%X-X;X;X;X;X;X;X",
";X;X-X*X#X XN # . # { dX:XZ k T.g.e ` aXgX2XM.i.e X   . o p d @ % ^ |.'._ _ _ K _ '.XX@X=X;X;X;X;X;X",
";X;X-X&X[.M l . . & :XdX<XC k N.g.r ] aXfX^.T.n.e.t     @ r.g.g o l ~ :X1XaXaXaX1X:X/ `.$X;X;X;X;X;X",
";X=X$XXX) S 0 $ = D >XdX<XT s.T.h.k j.6XtX^.C.n.e.e . . 0 g.T.k o w L <XjXlXlXlXlX1XU )  X#X=X-X;X;X",
";X%X`./ k.K.L * Y U.9XyXqXQ.W.E.T.M.Y.^.^.C.z.i.t o     e g.T.k * W ,XrXkXlXlXlXlXsX3XJ./ `.$X;X;X;X",
";X#X^ a L.4Xf.w f.8X0X0X0X0X^.E.R.R.R.M.N.V.a.h 0 X o @ g g.T.k * f.Q.uXhXkXlXkXjXgXyXK.p N +X-X;X;X",
";X@X^ w H.4Xf.0 d.E.~.~.~.~.E.C.C.C.n.r.i.B.B.a.e.e 8 h p.B.T.k O s W ,XuXhXkXhXiXyXwXL.s ~ @X-X;X;X",
";X$X_.G G.Q.W 0 k M.T.R.R.R.C.z.z.z.e.0 d g.B.V.z.h u p.V.N.M.k = + = f.3XuXjXgXwXqX4XH.G /.@X;X;X;X",
";X=XOX}.[ I s o e j g.V.C.C.a.q.u i t o @ g r.n.B.a.p.m.N.s.j L U Z a S T ,XtXyXwXQ.f.[ }.OX&X;X;X;X",
";X;X;X$X_.x # . . o i z.x.x.e.0 X   o 0 0 0 j M.R.V.V.C.h.k p R { R V = * f.3X4X4Xk.A /.@X;X;X;X;X;X",
";X;X;X=XOX`.M #     e u i i t X .   p r.s.g.h.N.V.V.c.u.P L R ] { R C ; ; D T W d.[ }.oX&X;X;X;X;X;X",
";X;X;X;X=X&X_.l # . . . o O 0 X o O j M.R.R.R.m.x.x.a.u p R { J.] K C V a ; = + $ ^ @X;X;X;X;X;X;X;X",
";X;X;X;X-X=XOX_.M . . . t q.e.e.e.e.p.N.C.C.m.e.q.h h L R ] { ` R F V ; = f T D * /.$X;X;X;X;X;X;X;X",
";X;X;X;X;X-X=X$X_.# . o i z.x.x.x.x.x.c.m.c.a.t . o = R { { { K C C V ; w ! I.! = ^ +X*X-X;X;X;X;X;X",
";X;X;X;X;X;X;X&X_.# + @ t i q.q.q.q.q.q.w.;.u O . . # V J U U F C ; ; L G.L.I.f.s m /. X&X;X;X;X;X;X",
";X;X;X;X;X;X;X&X_.% & V r = @ o + + + + @ o o . . o X o % v V V n = a G.9X8X!.F.S ; % B =X;X;X;X;X;X",
";X;X;X;X;X;X;X&X_.# = F L Y f + = A F C a = & . X 5 7 2 6 q & ; ; L F.,XeX8X!.F.S = # N @X;X;X;X;X;X",
";X;X;X;X;X;X;X&X_.- V R F.L.f.@ Z ` ] R J Z ; . 4 *.#.%.@.6   # = G.9XeXeX8X!.F.S ; . N @X=X-X;X;X;X",
";X;X;X;X;X;X;X&X_.% Z R H.I.f.= Z ] { ` K A ; + 4 X.<.3.2.*.6 8 = H.eXeX8XU.L.Q C = # G ).oX%X;X;X;X",
";X;X;X;X;X;X;X&X_.% s R H.I.F.= Z ] ] ` K A r $ 8 X.2.5.6.2.@.6 = H.qX8X!.L.Q I V & . # % B %X;X;X;X",
";X;X;X;X;X;X;X&X).% s R G.I.F.w = J J F Z r C ` k.S.Z.y.7.5.4.7 w H.qX8X!.H.' J A ; . . . B +X-X;X;X",
";X;X;X;X;X;X;X&X_.% n R F.I.f.@ o + * $ & o H <XdXfX7XD.0.7.8.y w H.9X8X!.H.E J n = . . . N +X-X;X;X",
";X;X;X;X;X;X;X=XXXB H J ! F.F.Y s # v _ R i l.aXlXlXfXD.0.0.6.=.y d.P.P.L.G.U A ; = & & # m `.OX&X;X",
";X;X;X;X;X;X;X-X&X&X).n f Q G.L.! = _ 1X6Xv.Z.pXlXlXfXD.0.0.6.4.@.y d E Q R A ; & & ; a a ; n B @X;X",
";X;X;X;X;X;X;X;X=X&XXXB m F T F.Y = ` aX7Xb.t.D.7X7X2XA.0.7.5.3.>...9 t F Z ; ; ; V A A G * # N OX;X",
";X;X;X;X;X;X;X;X-X-X&XOX/.n = p = & ` aXsXy.3.t.y.b.b.y.7.5.<.<.<.#.X.6 * $ + a F K K F n ; . M OX;X",
";X;X;X;X;X;X;X;X-X;X-X=X XN M M M M [ <X>Xt.<.<.2.3.6.5.5.2.<.$.>.%.#...: X . ; F R ` R F a + N OX;X",
";X;X;X;X;X;X;X;X;X;X;X;X&XOXoXoXOXoX}.) i -.,.>.<.1.2.2.1.,.,.$.O.O.O. .| > X + & F ] ] R Z & M +X;X",
";X;X;X;X;X;X;X;X;X;X;X;X-X-X;X;X;X-XOX^ v *.@.@.@.%.$.%.$.>.$. .| | | | | 9 c n m H ` _ I F m _.@X;X",
";X;X;X;X;X;X;X;X;X;X;X;X;X;X;X;X-X-X&XOX`.b 5 5 6 } O.O.O.O.+.2 : : : : 8 ~  XXXXX).n ; ; M }.&X&X;X",
";X;X;X;X;X;X;X;X;X;X;X;X;X;X;X;X-X-X-X-X+XB c c v 7 } | } } 2 q x x x x m }.&X;X=X.XM n n B &X&X;X;X",
";X;X;X;X;X;X;X;X;X;X;X;X;X;X;X;X;X;X;X;X&XoX X X).v : : : > 8 / .X.X.X.XXX@X-X-X-X$XXXXX.XOX&X;X;X;X",
";X;X;X;X;X;X;X;X;X;X;X;X;X;X;X;X;X;X;X;X;X-X;X;X&XB z x z l m  X=X-X;X-X-X-X;X;X;X;X;X-X-X-X;X;X;X;X",
";X;X;X;X;X;X;X;X;X;X;X;X;X;X;X;X;X;X;X;X;X;X;X;X&XoX|.|.|.|..X@X-X;X;X;X;X;X;X;X;X;X;X;X;X;X;X;X;X;X",
";X;X;X;X;X;X;X;X;X;X;X;X;X;X;X;X;X;X;X;X;X;X;X;X;X;X-X-X-X-X-X;X;X;X;X;X;X;X;X;X;X;X;X;X;X;X;X;X;X;X"
};
