/* XPM */
static char *p[] = {
/* columns rows colors chars-per-pixel */
"50 52 226 2 ",
"   c #2F2727",
".  c #2B2A2A",
"X  c #3C2223",
"o  c #372628",
"O  c #332C2C",
"+  c #3B2D2C",
"@  c #34302E",
"#  c #3C332D",
"$  c #2D2E34",
"%  c #2E313C",
"&  c #343333",
"*  c #3A3534",
"=  c #3C3A35",
"-  c #33343B",
";  c #3D3C3A",
":  c #491D1D",
">  c #581818",
",  c #780D0D",
"<  c #7A0F12",
"1  c #661414",
"2  c #741013",
"3  c #51211F",
"4  c #501E22",
"5  c #631C24",
"6  c #7A1622",
"7  c #462529",
"8  c #56272C",
"9  c #43342E",
"0  c #48322F",
"q  c #5E2836",
"w  c #433B35",
"e  c #4B3931",
"r  c #413E3C",
"t  c #543932",
"y  c #69252A",
"u  c #6C2532",
"i  c #693C36",
"p  c #743E38",
"a  c #48433A",
"s  c #554A3C",
"d  c #6A4B38",
"f  c #7C413A",
"g  c #7B533C",
"h  c #343645",
"j  c #34394D",
"k  c #383E57",
"l  c #463952",
"z  c #693352",
"x  c #3C4155",
"c  c #3B4364",
"v  c #3D466C",
"b  c #3E4870",
"n  c #444341",
"m  c #494744",
"M  c #4B4945",
"N  c #4D4B49",
"B  c #524446",
"V  c #544C43",
"C  c #514F4B",
"Z  c #5B5444",
"A  c #53514D",
"S  c #5C5649",
"D  c #4B4D59",
"F  c #514F56",
"G  c #545352",
"H  c #5B5956",
"J  c #5C5A55",
"K  c #6D4D47",
"L  c #665946",
"P  c #60594A",
"I  c #625E57",
"U  c #6E634B",
"Y  c #75694E",
"T  c #7C704E",
"R  c #67635C",
"E  c #776A57",
"W  c #7D735C",
"Q  c #444668",
"!  c #565866",
"~  c #414B74",
"^  c #4C4875",
"/  c #434E7B",
"(  c #514870",
")  c #49537B",
"_  c #565B76",
"`  c #6A6764",
"'  c #726E65",
"]  c #787368",
"[  c #6E6971",
"{  c #7B7973",
"}  c #850A0A",
"|  c #9B0306",
" . c #8A0F1A",
".. c #960C1B",
"X. c #A40004",
"o. c #A6060B",
"O. c #B8000F",
"+. c #A8081A",
"@. c #BA0619",
"#. c #B01E1F",
"$. c #871724",
"%. c #AC1729",
"&. c #BA1829",
"*. c #94242F",
"=. c #AE2932",
"-. c #C40016",
";. c #C50219",
":. c #CA021A",
">. c #D1061E",
",. c #D70A22",
"<. c #CC182D",
"1. c #D91229",
"2. c #E4132B",
"3. c #EE1B33",
"4. c #F41E36",
"5. c #D42135",
"6. c #E5273D",
"7. c #F62139",
"8. c #81423A",
"9. c #88483F",
"0. c #95483F",
"q. c #94493F",
"w. c #84573E",
"e. c #8C3A43",
"r. c #D43F4C",
"t. c #F23046",
"y. c #9E4C41",
"u. c #8D5547",
"i. c #8E5F43",
"p. c #B04E4E",
"a. c #A55543",
"s. c #B75647",
"d. c #9A6343",
"f. c #85785A",
"g. c #A26745",
"h. c #B2704D",
"j. c #926F64",
"k. c #897C62",
"l. c #837C74",
"z. c #CD594A",
"x. c #D35B4C",
"c. c #D15B5E",
"v. c #C6674B",
"b. c #DA674F",
"n. c #D37650",
"m. c #DA7551",
"M. c #E46751",
"N. c #E77453",
"B. c #E75766",
"V. c #D7737C",
"C. c #98875C",
"Z. c #998966",
"A. c #938771",
"S. c #A7966A",
"D. c #B29B68",
"F. c #A79275",
"G. c #B69975",
"H. c #B9A37A",
"J. c #D78352",
"K. c #E98858",
"L. c #D69469",
"P. c #EE8E6D",
"I. c #C6AC7A",
"U. c #CAB379",
"Y. c #F2A56E",
"T. c #465286",
"R. c #475489",
"E. c #48548A",
"W. c #4A5995",
"Q. c #4C5B9B",
"!. c #555D94",
"~. c #59659A",
"^. c #6E7389",
"/. c #4E5EA1",
"(. c #4F60A6",
"). c #5363A5",
"_. c #5163AB",
"`. c #5669B7",
"'. c #596DC3",
"]. c #5C71CC",
"[. c #5E75D4",
"{. c #5F77D9",
"}. c #6079DC",
"|. c #627CE2",
" X c #657FE9",
".X c #B47D84",
"XX c #E77986",
"oX c #7C8194",
"OX c #6681EE",
"+X c #6782F1",
"@X c #6884F5",
"#X c #6A86FA",
"$X c #6B88FE",
"%X c #908D8D",
"&X c #9B9B9C",
"*X c #A59A81",
"=X c #A69B94",
"-X c #BEAC83",
";X c #AEA599",
":X c #B0ADAB",
">X c #B6B6B6",
",X c #CD9998",
"<X c #F08D97",
"1X c #C2AF85",
"2X c #CCAD80",
"3X c #CEB88F",
"4X c #D9BC8C",
"5X c #F2B38A",
"6X c #F298A2",
"7X c #F1B8A2",
"8X c #DDC68D",
"9X c #DAC494",
"0X c #F5C58E",
"qX c #E6CB94",
"wX c #EDD19B",
"eX c #D2C6AC",
"rX c #E4CCAB",
"tX c #F3D6AC",
"yX c #DAD4D3",
"uX c #EDD8D1",
"iX c #F2E4CF",
"pX c #F3E9D8",
"aX c #F4E9E7",
"sX c #F4EFEA",
"dX c #F7F6F6",
"fX c #F8F7F7",
/* pixels */
"$X$X$X$X$X$X$X$X$X$X$X$X$X$X$X$X$X$X$X$X$X$X$X$X$X$X$X$X$X$X$X$X$X$X$X$X$X$X$X$X$X$X$X$X$X$X$X$X$X$X",
"$X$X$X$X$X$X$X$X$X$X$X$X$X$X$X$X$X$X$X$X#X@X#X#X#X#X$X$X$X$X#X#X#X#X#X$X$X$X$X$X$X$X$X$X$X$X$X$X$X$X",
"$X$X$X$X$X$X$X$X$X$X$X$X$X$X$X$X$X$X$X@X[._.(._.[.@X$X$X$X#X{.`./._.]. X$X$X$X$X$X$X$X$X$X$X$X$X$X$X",
"$X$X$X$X$X$X$X$X$X$X$X$X$X$X$X$X$X$X#XOXW.j h h /.OX#X$X#X@X(.x h j R.|.$X$X$X$X$X$X$X$X$X$X$X$X$X$X",
"$X$X$X$X$X$X$X$X$X$X$X$X$X$X$X$X$X@X].).Q - ; x ^ ).{. X{.`.b $ . . k Q.].@X$X$X$X$X$X$X$X$X$X$X$X$X",
"$X$X$X$X$X$X$X$X$X$X$X$X$X$X$X$X$XOXQ.j h n C H D k /. X(.x % .     $ h R.{.$X$X$X$X$X$X$X$X$X$X$X$X",
"$X$X$X$X$X$X$X$X$X$X$X$X$X$X$X$X$X XT.$ = M E A.E C ) ).( q 4 5 5 u u u z ).]. X$X$X$X$X$X$X$X$X$X$X",
"$X$X$X$X$X$X$X$X$X$X$X$X$X$X$X$X$X XT.$ = N A.3X*X{ H l u +.+.+.&.5.6.5.*.l R.{.$X$X$X$X$X$X$X$X$X$X",
"$X$X$X$X$X$X$X$X$X$X$X$X$X$X$X$X#XOXT.$ = A F.rXeX;Xj.q  .@.;.:.,.2.3.3.=.7 k /.[.+X$X$X$X$X$X$X$X$X",
"$X$X$X$X$X$X$X$X$X$X$X$X$X$X$X$X#XOXT.& = A &XiXpXuXV.%.@.-.:.;.:.,.2.3.=.7 $ j T.}.$X$X$X$X$X$X$X$X",
"$X$X$X$X$X$X$X$X$X$X$X$X$X$X$X$X$XOX_.v x m =XpXuX7Xc.;.+...........%.=.$.+ . . k /.[. X$X$X$X$X$X$X",
"$X$X$X$X$X$X$X$X$X$X$X$X$X$X$X$X$X#XOX`.b x &XiX<Xr.&.X.< 4 4 4 7 : 7 7 7 . . . $ j E.}.$X$X$X$X$X$X",
"$X$X$X$X$X$X$X$X$X$X$X$X$X$X$X$X$X#XOX_.( 8 j.,Xc.&.| } y s s L P P P S P P P S S s ! ).[. X$X$X$X$X",
"$X$X$X$X$X$X$X$X$X$X$X$X$X$X$X$X$XOX/.x y } #.=.#.o.2 3 g C.D.-X1X1X-X9X-X-X-X-XH.S.k.G E.{.$X$X$X$X",
"$X$X$X$X$X$X$X$X$X$X$X$X$X$X$X$X$X|.T.O 1 | X.| | , > O Z C.D.-XH.-X-X-X-X-X-X-XH.S.T a c ].$X$X$X$X",
"$X$X$X$X$X$X$X$X$X$X$X$X$X$X$X$X$XOXT.O 1 | | | , : X . = a Z S S S S P P H S S s s a @ c ].$X$X$X$X",
"$X$X$X$X$X$X$X X{.[.].[.].{.OX@X|.`.b O > , } } >   # s s G m @ O e 9 . ; A n @ . . . x R.{.$X$X$X$X",
"$X$X$X$X$X$X$X|.Q.c c c c / `.OX).c h . X : : : X   d h.G.:X{ ; d d.g 9 ! ;X%Xx . . x Q.}.@X#X#X$X$X",
"$X$X$X$X$X@X|.'._ F G F G ! ).`.b . * e # . . . + t q.K.wXaX&Xn g J.g.e { yX:XA . . c ).|. X$X$X$X$X",
"$X$X$X$X$X|.Q._ &X>X>X>X>X:X^.c h O g g.d . .   i a.n.K.7XaX&Xn g J.g.a { yX:Xx . . $ c W.{.$X$X$X$X",
"$X$X$X@X|.`.! ` >XfXfXfXfXyX%Xs & # d.J.g . .   p s.m.K.5XuX=XK d.J.h.d A.yX>XR $ . # a ! `.|. X$X$X",
"$X$X$X|.W._ l.1XyXfXfXfXfXsXeXF.P 9 d.J.w.@ . . 0 i a.M.P.5XL.h.m.K.L.G.1XtXqXH.W = V k.k._ Q.{.$X$X",
"$X$X$X}.c M I.tXiXsXfXfXfXpXrX2XU 9 d.J.i.e +   + 0 q.b.m.J.J.K.K.K.Y.5X0X0X0X0XD.s L 2XI.V c ].$X$X",
"$X#X#X].D s D.wXtXiXaXdXpXrXF.L a # d.K.v.y.i O i y.v.N.h.g a.M.N.N.K.Y.Y.Y.Y.Y.C.s L I.I.B c '.$X$X",
"$X$X$X}.^ F F.4X0XtXiXpXrX2XE & & w i.n.m.b.q.8 y.x.m.n.w.9 f s.z.z.b.K.K.K.K.J.d.a P S.F.D c OX$X$X",
"$X$X$X X'.~.[ j.U.wXtXtX*XE V ; A J L u.h.N.v.a.v.N.h.g t O 0 i p p a.b.N.N.v.w.s & ; P [ /.oXOX$X$X",
"$X$X$X$X#X}.) G F.4X8XI.U * ; B ` ] J e i.n.m.M.N.K.d.t 9 9 O       i s.x.x.0.9 . . . % b OX#X$X$X$X",
"$X$X$X$X$XOX`.~.[ E T Y B r r N ` l.' I L g s.b.M.N.v.g.d.d.d @ .   0 i f p i o . . x T.`.OX$X$X$X$X",
"$X$X$X$X$X$X#X[.b @ = = r r a N R { A.{ J w 9.z.x.x.m.K.K.K.d.t + + + 9 # . . . . $ b [.#X#X$X$X$X$X",
"$X$X$X$X$X$X$X[.b @ Z T V ; ; M G R ] { ' J K f f 8.s.M.N.N.v.q.q.q.0.0.i . . . h T.`.OX$X$X$X$X$X$X",
"$X$X$X$X$X$X+X].v a C.S.U ; ; n m N ` { { ] V O   # 8.z.x.x.x.x.x.z.z.z.q.9 . . v ].#X$X$X$X$X$X$X$X",
"$X$X$X$X$X X_./ x a C.H.S.C.S = ; m G J J C ; . .   t 8.8.8.8.8.8.8.8.f i w & . b {.$X$X$X$X$X$X$X$X",
"$X$X$X$X$X[.b % ; S Z.U.8X9XW = ; n n n w +           O O & + * O O O # ; n ; . v OX$X$X$X$X$X$X$X$X",
"$X$X$X$X#X[.b . ; S C.U.qXqXH.C.S ; & * 8 6 6 6 4   O - ; m N G n @ a U U S m & x OX#X#X$X$X$X$X$X$X",
"$X$X$X#X@X].c . ; Z Z.I.9XwX9X9XE @ . 7  .@.@.@.2 o & l N R ' { J = L S.S.' C & c OXOX#X$X$X$X$X$X$X",
"$X$X$X X`.T.j O ; A W S.-X9XqX9XW + 4 6 %.,.,.@.6   & a A ` ] l.J # L D.S.' C & c OXOX+X$X$X$X$X$X$X",
"$X$X$X[.~ $ $ . = N I ] S.8X8X9XW + 6 ;.1.3.2.>.u 0 ; l C R ' { J = L D.S.W A & x OX$X$X$X$X$X$X$X$X",
"$X$X$X[.c . . . = M J ' S.U.8X9X] 7 $.1.3.4.B.XX.X%XI w r m A G n @ U D.S.' A & c OX$X$X$X$X$X$X$X$X",
"$X$X#X].c . . . ; M H ' S.U.8X9Xj.7 %.4.4.t.<XuXaXyX%Xl O - & @ @ @ L D.S.' A - v OX$X$X$X$X$X$X$X$X",
"$X|.`.E.x & & & = ; N I k.Z.Z.C.K 6 &.4.4.t.<XsXdXaX;Xe.u.{ H - a L T Z.f.G D ) Q.OX$X$X$X$X$X$X$X$X",
"$X[.b - ; a x ; & & ; N I R Z e $.@.1.7.7.t.6XaXdXaX<Xr.XXyX%Xr Z S.Z.W G ; b '.OX+X$X$X$X$X$X$X$X$X",
"$X].c . ; m V A m r ; ; a M t 6 +.:.,.2.3.t.B.6X6XXXB.t.XXaX&Xn a T Y G D / _.OX$X#X$X$X$X$X$X$X$X$X",
"$X].c @ ; N H R I H ; @ O X $.+.O.:.:.>.2.7.t.t.6.5.<.,.V.uX&Xh & = - & / OXOX#X$X$X$X$X$X$X$X$X$X$X",
"$X].c & n H ` ` J m & . : 1 ..O.O.O.-.:.,.2.2.2.,.@.:.,.p.=X%X) / ~ b b Q.OX$X$X$X$X$X$X$X$X$X$X$X$X",
"$X'.c & A R { ' N & $ X 1 } | X.X.X.O.:.:.>.:.:.:.;.;.;.$.B !.[.OXOXOXOXOX@X$X$X$X$X$X$X$X$X$X$X$X$X",
"$XOXQ.b F G J I ^ ~ b Q q 2 , , , , ..O.O.O.O.O.+.$...$.z ^ ).OX@X#XOXOX$X$X$X$X$X$X$X$X$X$X$X$X$X$X",
"$X+XOX`.c & = x ).{.{.'.Q X X X X : 2 X.X.X.| | 2 4 7 + ^ [.OX#X$X$X@X#X$X$X$X$X$X$X$X$X$X$X$X$X$X$X",
"$X#X+XOXQ.b b R.].#X$X X).b b b ~ Q q < , , , 2 z b b b _.+X$X$X$X$X$X$X$X$X$X$X$X$X$X$X$X$X$X$X$X$X",
"$X$X$X+XOX[.{.OXOX$X$X#XOX[.[.{.{.'.^ + X X X 7 ) ].[.}.|.#X$X$X$X$X$X$X$X$X$X$X$X$X$X$X$X$X$X$X$X$X",
"$X$X$X$X#X$X$X+X$X$X$X$X$X#X$X$X$XOX_.b c c v b `.+X$X$X$X$X$X$X$X$X$X$X$X$X$X$X$X$X$X$X$X$X$X$X$X$X",
"$X$X$X$X$X$X$X$X$X$X$X$X$X$X$X$X$X#XOX[.[.[.[.{.OX@X$X$X$X$X$X$X$X$X$X$X$X$X$X$X$X$X$X$X$X$X$X$X$X$X",
"$X$X$X$X$X$X$X$X$X$X$X$X$X$X$X$X$X$X#X$X#X$X$X$X$X$X$X$X$X$X$X$X$X$X$X$X$X$X$X$X$X$X$X$X$X$X$X$X$X$X"
};
