/* XPM */
static char *p2[] = {
/* columns rows colors chars-per-pixel */
"50 52 230 2 ",
"   c #2E2727",
".  c #2B2B2A",
"X  c #332525",
"o  c #3D2121",
"O  c #352629",
"+  c #332C2B",
"@  c #3A2C2C",
"#  c #34302E",
"$  c #3A312D",
"%  c #2D2E34",
"&  c #392B32",
"*  c #2F313B",
"=  c #343332",
"-  c #393635",
";  c #3B3935",
":  c #34343B",
">  c #3D3C3A",
",  c #461E1E",
"<  c #4E1B1B",
"1  c #5C1717",
"2  c #531A1A",
"3  c #5A1919",
"4  c #750E0E",
"5  c #7B0D0D",
"6  c #7E0E12",
"7  c #651516",
"8  c #76151A",
"9  c #4E1F24",
"0  c #501F25",
"q  c #651923",
"w  c #7A1521",
"e  c #741F35",
"r  c #422021",
"t  c #472A2B",
"y  c #57242B",
"u  c #42332E",
"i  c #4A322F",
"p  c #432830",
"a  c #552835",
"s  c #4A3534",
"d  c #423B34",
"f  c #413E3B",
"g  c #563633",
"h  c #5D3933",
"j  c #6C3032",
"k  c #6A3C37",
"l  c #43413E",
"z  c #4C453B",
"x  c #55463A",
"c  c #59523F",
"v  c #694637",
"b  c #784439",
"n  c #78513B",
"m  c #373947",
"M  c #363C53",
"N  c #373E57",
"B  c #383F5B",
"V  c #443946",
"C  c #413D59",
"Z  c #3F404A",
"A  c #3C425A",
"S  c #3B4364",
"D  c #3D466A",
"F  c #3E486F",
"G  c #3F4971",
"H  c #454341",
"J  c #494743",
"K  c #484747",
"L  c #4D4C49",
"P  c #524B48",
"I  c #5B5547",
"U  c #55524E",
"Y  c #474A5A",
"T  c #555351",
"R  c #5A5855",
"E  c #7A484E",
"W  c #685346",
"Q  c #665E4D",
"!  c #625A53",
"~  c #615E5A",
"^  c #68625A",
"/  c #796C53",
"(  c #786A59",
")  c #464968",
"_  c #514D6D",
"`  c #444E7B",
"'  c #4C557A",
"]  c #585879",
"[  c #60456F",
"{  c #6A6761",
"}  c #696764",
"|  c #716D66",
" . c #77736A",
".. c #6F7077",
"X. c #777675",
"o. c #7B7978",
"O. c #8D0606",
"+. c #840A0B",
"@. c #890809",
"#. c #9A0203",
"$. c #920608",
"%. c #8A0C16",
"&. c #990E16",
"*. c #A00000",
"=. c #A8020A",
"-. c #B4000C",
";. c #A90919",
":. c #BC0112",
">. c #B50618",
",. c #B1181A",
"<. c #861724",
"1. c #B11426",
"2. c #8C2B3F",
"3. c #962532",
"4. c #B62535",
"5. c #C40016",
"6. c #C60118",
"7. c #C80118",
"8. c #D1061E",
"9. c #DA0D25",
"0. c #CD152B",
"q. c #EC1A32",
"w. c #CC2839",
"e. c #F6223A",
"r. c #85443C",
"t. c #89463D",
"y. c #96493F",
"u. c #84583E",
"i. c #903843",
"p. c #CF3B48",
"a. c #9D4B40",
"s. c #8D5C40",
"d. c #885352",
"f. c #A64C44",
"g. c #AD5545",
"h. c #B85747",
"j. c #906C50",
"k. c #A96947",
"l. c #B46F4C",
"z. c #897B6A",
"x. c #CE444F",
"c. c #C55649",
"v. c #C75C4A",
"b. c #DA5D4D",
"n. c #CB654C",
"m. c #DA624E",
"M. c #C5764D",
"N. c #DD6F50",
"B. c #CA7D51",
"V. c #DA7651",
"C. c #E1614F",
"Z. c #E76951",
"A. c #E77754",
"S. c #D95969",
"D. c #EB4F61",
"F. c #93815B",
"G. c #998969",
"H. c #8E8778",
"J. c #9D8F70",
"K. c #968C79",
"L. c #AA936F",
"P. c #AB9675",
"I. c #BAA674",
"U. c #D68352",
"Y. c #EB8756",
"T. c #F1965E",
"R. c #D29670",
"E. c #ED9675",
"W. c #C3AF7F",
"Q. c #EBA57D",
"!. c #F5AC74",
"~. c #465283",
"^. c #465489",
"/. c #48568D",
"(. c #51558C",
"). c #4A5994",
"_. c #4C5B99",
"`. c #5A679C",
"'. c #696F8B",
"]. c #4E5FA2",
"[. c #4F60A4",
"{. c #5162A5",
"}. c #5263AC",
"|. c #5366B3",
" X c #576AB9",
".X c #566ABB",
"XX c #576CC0",
"oX c #596DC3",
"OX c #5D70C4",
"+X c #5B71CB",
"@X c #5E75D3",
"#X c #5F77D8",
"$X c #6179DD",
"%X c #637CE4",
"&X c #657FE9",
"*X c #A37D82",
"=X c #F87987",
"-X c #6681EE",
";X c #6782F1",
":X c #6884F5",
">X c #6A87FB",
",X c #6B88FE",
"<X c #8C8A8F",
"1X c #B9AA96",
"2X c #ABABAB",
"3X c #BDACAE",
"4X c #B9B9B9",
"5X c #DF919A",
"6X c #E59496",
"7X c #CDB489",
"8X c #CEB18E",
"9X c #CEBB8E",
"0X c #D5BD9B",
"qX c #ECB48B",
"wX c #E59CA5",
"eX c #CCB6B3",
"rX c #DDC99D",
"tX c #E5C393",
"yX c #F7D29F",
"uX c #D9C8B3",
"iX c #E8CCA4",
"pX c #E6D4B5",
"aX c #F4D3B8",
"sX c #C7C6C7",
"dX c #D6D4D1",
"fX c #EED8CF",
"gX c #F7E4CA",
"hX c #E2E0DE",
"jX c #F5E5D6",
"kX c #F5EDEB",
/* pixels */
",X,X,X,X,X,X,X,X,X,X,X,X,X,X,X,X,X,X,X,X>X>X>X>X>X,X,X,X>X>X>X,X,X,X,X,X,X,X,X,X,X,X,X,X,X,X,X,X,X,X",
",X,X,X,X,X,X,X,X,X,X,X,X,X,X,X,X,X,X%XXX.X X%X>X,X,X>X%XXX.X.X%X,X,X,X,X,X,X,X,X,X,X,X,X,X,X,X,X,X,X",
",X,X,X,X,X,X,X,X,X,X,X,X,X,X,X,X,X>X XB m N |.:X>X>X:X.XM m A }.:X,X,X,X,X,X,X,X,X,X,X,X,X,X,X,X,X,X",
",X,X,X,X,X,X,X,X,X,X,X,X,X,X,X,X%X}.` m > H ' }.%X-X|.G % . % G }.%X,X,X,X,X,X,X,X,X,X,X,X,X,X,X,X,X",
",X,X,X,X,X,X,X,X,X,X,X,X,X,X,X,X+XS : l U ^ U A oXoXC & . O O & C  X&X,X,X,X,X,X,X,X,X,X,X,X,X,X,X,X",
",X,X,X,X,X,X,X,X,X,X,X,X,X,X,X,X+XM = H  .P. .R ' _ e w w <.3.3.3._ }.%X,X,X,X,X,X,X,X,X,X,X,X,X,X,X",
",X,X,X,X,X,X,X,X,X,X,X,X,X,X,X,X+XM = J K.rX1Xo.P q ;.6.6.9.q.q.w.j A OX,X,X,X,X,X,X,X,X,X,X,X,X,X,X",
",X,X,X,X,X,X,X,X,X,X,X,X,X,X,X,XOXM = J K.pXpX8Xf.&.:.6.6.8.9.q.w.y A -X,X,X,X>X,X,X,X,X,X,X,X,X,X,X",
",X,X,X,X,X,X,X,X,X,X,X,X,X,X,X,X@XG Z l K.fXaX6Xp.:.;.;.;.;.;.4.4.y N }.+X@X-X>X,X,X,X,X,X,X,X,X,X,X",
",X,X,X,X,X,X,X,X,X,X,X,X,X,X,X,X;X@X).Z H.pXE.w.>.$.7 2 y < < y i # % M A S {.>X,X,X,X,X,X,X,X,X,X,X",
",X,X,X,X,X,X,X,X,X,X,X,X,X,X,X,X-X+X(.y d.R.c.-.%.8 x W Q Q ! ! Q Q Q Q I I ]  X-X>X,X,X,X,X,X,X,X,X",
",X,X,X,X,X,X,X,X,X,X,X,X,X,X,X,X@XF a +.&.,.=.$.3 h z.W.9X9X9X9X9X9X9X9XW.L./ A |.>X,X,X,X,X,X,X,X,X",
",X,X,X,X,X,X,X,X,X,X,X,X,X,X,X,X+XM < O.#.#.+.7 o ; / F.G.J.J.J.G.J.J.J.G./ I * {.>X>X,X,X,X,X,X,X,X",
",X,X,X,X,X,X,X,X,X,X,X,X,X,X>X:X.XM 2 O.#.O.1 X # # ; ; ; d d ; ; l H ; ; > # m {.>X,X,X,X,X,X,X,X,X",
",X,X,X,X,X,X,X,X,X,X,X,X,X,X-X|.G * o 1 7 1 o $ n j.<X| # v u.x > X.o.> Z /.).].#X>X,X,X,X,X,X,X,X,X",
",X,X,X,X,X,X,X,X,X,X,X,X,X,X$XG . $ $       + h l.Q.fX2Xl n U.n Z 4X4XL F -X:X>X>X,X,X,X,X,X,X,X,X,X",
",X,X,X,X,X,X,X,X,X,X,X,X,X,X$X) d n u.$ .   k g.V.Q.fX2XJ u.B.n P 4XuXY G -X>X>X,X,X,X,X,X,X,X,X,X,X",
",X,X,X,X,X,X,X,X,X,X,X,X,X%X X_ n U.k.u . O r.v.A.Q.fX8XW k.Y.s.^ 4XuX^ ] oX-X>X,X,X,X,X,X,X,X,X,X,X",
",X,X,X,X,X,X,X,X,X,X,X,X&X[.Y j.U.Y.k.$   . u k h.A.Q.R.B.U.Y.R.R.qXtXR.z.) }.:X,X,X,X,X,X,X,X,X,X,X",
",X,X,X,X,X,X,X,X,X,X,X,X&X~.s k.Y.Y.M.v u O i b n.N.M.M.A.Y.Y.T.!.!.!.!.l.> /.:X,X,X,X,X,X,X,X,X,X,X",
",X,X,X,X,X,X,X,X,X,X,X,X-X~.s f.V.Y.A.v.r.p r.n.V.M.v n m.Z.Z.Y.T.T.T.T.k.- /.;X>X,X,X,X,X,X,X,X,X,X",
",X,X,X,X,X,X,X,X,X,X,X,X:X|.' d.g.V.A.C.g.r.h.V.l.u.u g t.y.f.n.A.A.A.k.n = S }.-X>X,X,X,X,X,X,X,X,X",
",X,X,X,X,X,X,X,X,X,X,X,X,X;X#X) k c.C.b.b.b.A.V.n u # + @ @ s y.m.C.h.h # % * N }.>X>X,X,X,X,X,X,X,X",
",X,X,X,X,X,X,X,X,X,X,X,X,X,X&X|.] E r.t.h.C.Z.N.k.u.s.v + . . k r.r.k + M ^.)._.+X>X,X,X,X,X,X,X,X,X",
",X,X,X,X,X,X,X,X,X,X,X,X,X,X>X>XOXS : # 2.v.b.m.A.Y.Y.k.g u @ u u @ + * ~.$X>X:X:X,X,X,X,X,X,X,X,X,X",
",X,X,X,X,X,X,X,X,X,X,X,X,X,X,X,X-X X` % s k v r.n.A.Z.m.f.y.a.y.t.i m /.+X:X>X>X:X,X,X,X,X,X,X,X,X,X",
",X,X,X,X,X,X,X,X,X,X,X,X,X,X>X%X$X#X_.Z = = . u y.c.c.c.c.c.c.c.f.g A }.@X#X#X#X-X>X,X,X,X,X,X,X,X,X",
",X,X,X,X,X,X,X,X,X,X,X,X,X,X%X).S S Y T U U > O i h h h h h h h g + % A S S S G XX>X,X,X,X,X,X,X,X,X",
",X,X,X,X,X,X,X,X,X-XOXoXoXoX}.B . - K ^ X.} K - . X y r X # - . . . = P R R } } `.+X;X,X,X,X,X,X,X,X",
",X,X,X,X,X,X,X,X>X XD Z M M m % - U ^ o.z.z.} T - t %.w o l U f . . x P.rXsXdXsX'.) +X,X,X,X,X,X,X,X",
",X,X,X,X,X,X,X&X X`.'.X.X.X.X.( ^ U ^  .o. .| ~ H t w w q g P z > . x z.1XgXjXhXH.m .X,X,X,X,X,X,X,X",
",X,X,X,X,X>X>X$XA ..dXhXhXhXdXiXI.I J ^ { { } ~ L f @ q ;.w # L I ; . - ( rXgXhX'.N oX,X,X,X,X,X,X,X",
",X,X,X,X,X,X,X+XM | pXgXgXgXgXgXrXP.( P T U T U K > + q ;.w O V U f : . K j.K.<X'.[.$X>X,X,X,X,X,X,X",
",X,X,X,X,X,X,X@X) ~ 7XtXqXtXtXjXjXyXG.l - K J H l f + q >.<.O - H f ; @ O + : A }.:X>X,X,X,X,X,X,X,X",
",X,X,X,X,X,X,X%X|.'.( ( j.( G.0XaXyXL.d - l > - - u 7 %.>.w   % = - t w q X S |.$X>X,X,X,X,X,X,X,X,X",
",X,X,X,X,X,X,X&X$X[.m - % . f G.qXW.G.; = ; $ o o 3 $.>.w.i.K p t t j 4.2.& ).&X:X,X,X,X,X,X,X,X,X,X",
",X,X,X,X,X,X>X$X^.) ^ T f = . I Q Q z + . # 3 5 5 @.-.x.wXeX3XS.4.4.p.=X*XN /.&X,X,X,X,X,X,X,X,X,X,X",
",X,X,X,X,X&X%X[.Y T  .~ f % .     o , , , 2 +.=.=.-.5.S.kXkXkX=Xe.q.D.fX2XV ).:X,X,X,X,X,X,X,X,X,X,X",
",X,X,X,X,X%X^.Y } | | L . . . . r 5 @.@.@.O.=.5.:.5.5.S.fXkXkX=Xe.9.x.fX2XK ).&X,X,X,X,X,X,X,X,X,X,X",
",X,X,X,X,X$X) > ^ | T f = % . . , @.#.*.*.*.-.7.7.7.7.p.5XwXwXD.9.9.p.*X<X/. X:X,X,X,X,X,X,X,X,X,X,X",
",X,X,X,X>X@XD : ~ T = ; l l > % , O.#.#.*.*.:.5.6.5.6.8.0.0.0.0.6.6.1.g ' $X&X,X,X,X,X,X,X,X,X,X,X,X",
",X,X,X,X>X-XD = L J = = H > = . , +.*.*.*.*.=.-.-.:.5.7.7.7.7.:.-.-.%.9 ) -X,X,X,X,X,X,X,X,X,X,X,X,X",
",X,X>X>X>X-XG m l > . : l - . . , O.*.*.*.*.#.#.#.=.>.5.5.6.5.=.#.#.%.p ~.&X,X,X,X,X,X,X,X,X,X,X,X,X",
",X,X>X>X>X-XoX^.Z = ; K U f X 2 5 #.*.#.*.#.5 1 1 7 =.=.-.-.=.6 3 3 a /.oX&X,X,X,X,X,X,X,X,X,X,X,X,X",
",X,X,X,X,X,X>XoXA = l T ^ L $ 8 O.O.O.O.O.@.1 o o 2 5 O.O.O.+.y m m G #X,X,X,X,X,X,X,X,X,X,X,X,X,X,X",
",X,X,X,X,X,X,X+XM = l T ^ ^ ! g < < < < < 2 7 5 5 4 3 < , r y _ .X X@X&X,X,X,X,X,X,X,X,X,X,X,X,X,X,X",
",X,X,X,X,X,X>X+XM = H R } | ^ l % - . .     1 +.+.w V B A A S  X,X,X,X,X,X,X,X,X,X,X,X,X,X,X,X,X,X,X",
",X,X,X,X,X,X,XoXM = l ~  .R > l H U K .     X o 9 V }.@X+X@X#X-X,X,X,X,X,X,X,X,X,X,X,X,X,X,X,X,X,X,X",
",X,X,X,X,X,X,X#X^.A m L ~ _ D m H L T G G D D F D /.-X>X,X,X,X,X,X,X,X,X,X,X,X,X,X,X,X,X,X,X,X,X,X,X",
",X,X,X,X,X,X,X>X-X{.m - H _.XXS % = G +X-X-X-X-X-X-X;X>X,X,X,X,X,X,X,X,X,X,X,X,X,X,X,X,X,X,X,X,X,X,X",
",X,X,X,X,X,X,X,X,X@X).^./.+X&X|.^.^.|.-X,X,X;X:X,X,X,X,X,X,X,X,X,X,X,X,X,X,X,X,X,X,X,X,X,X,X,X,X,X,X",
",X,X,X,X,X,X,X,X>X>X;X;X:X:X>X:X;X;X:X,X,X,X,X>X,X,X,X,X,X,X,X,X,X,X,X,X,X,X,X,X,X,X,X,X,X,X,X,X,X,X"
};
