/* XPM */
static char *pacman[] = {
/* columns rows colors chars-per-pixel */
"25 28 96 2 ",
"   c #FEFF1D",
".  c #FEFF1E",
"X  c #FEFF1F",
"o  c #FEFF20",
"O  c #FEFF22",
"+  c #FEFF24",
"@  c #FEFF29",
"#  c #FEFF2A",
"$  c #FEFE2B",
"%  c #FEFF2C",
"&  c #FEFE2D",
"*  c #FEFF2E",
"=  c #FEFF32",
"-  c #FEFF35",
";  c #FEFF36",
":  c #FEFF38",
">  c #FEFF39",
",  c #FEFF3A",
"<  c #FEFF3B",
"1  c #FEFE3D",
"2  c #FEFF3D",
"3  c #FEFF3E",
"4  c #FEFE40",
"5  c #FEFF43",
"6  c #FEFE44",
"7  c #FEFE46",
"8  c #FEFE47",
"9  c #FEFE49",
"0  c #FEFE4A",
"q  c #FEFE4B",
"w  c #FEFE4D",
"e  c #FEFE4E",
"r  c #FEFE4F",
"t  c #FEFE53",
"y  c #FEFE56",
"u  c #FEFE5A",
"i  c #FEFE5F",
"p  c #FEFF68",
"a  c #FEFE75",
"s  c #FEFE7A",
"d  c #FEFE7C",
"f  c #FEFE7F",
"g  c #FEFE84",
"h  c #FEFE8A",
"j  c #FEFE8D",
"k  c #FEFE90",
"l  c #FEFE91",
"z  c #FEFE99",
"x  c #FEFE9F",
"c  c #FEFEA1",
"v  c #FEFEA3",
"b  c #FEFEA4",
"n  c #FEFEA6",
"m  c #FEFEA8",
"M  c #FEFEA9",
"N  c #FEFEAB",
"B  c #FEFEAF",
"V  c #FEFFB2",
"C  c #FEFFB3",
"Z  c #FEFEB4",
"A  c #FEFEB5",
"S  c #FEFEB8",
"D  c #FEFEBB",
"F  c #FEFEBD",
"G  c #FEFEBE",
"H  c #FEFEC1",
"J  c #FEFFC1",
"K  c #FEFEC2",
"L  c #FEFFC3",
"P  c #FEFEC7",
"I  c #FEFFC9",
"U  c #FEFECB",
"Y  c #FEFECC",
"T  c #FEFED1",
"R  c #FEFFD1",
"E  c #FEFFD3",
"W  c #FEFFD9",
"Q  c #FEFFDA",
"!  c #FEFEDB",
"~  c #FEFFE1",
"^  c #FFFFE3",
"/  c #FEFFE4",
"(  c #FFFFE4",
")  c #FEFFE5",
"_  c #FFFFEB",
"`  c #FFFFEE",
"'  c #FEFFF0",
"]  c #FFFFF4",
"[  c #FFFFF7",
"{  c #FFFFF8",
"}  c #FFFFF9",
"|  c #FFFFFA",
" . c #FFFFFC",
".. c #FFFFFD",
"X. c #FFFFFE",
"o. c #FFFFFF",
/* pixels */
"o.o.o.o.o.o.o.o.o.o.) G C C D T } o.o.o.o.o.o.o.o.",
"o.o.o.o.o.o.o.) h 2             $ p G } o.o.o.o.o.",
"o.o.o.o.o.] g O                       9 I o.o.o.o.",
"o.o.o.o.! 4                             O l o.o.o.",
"o.o.o.T *                                   s o.o.",
"o.o.^ =                                       l o.",
"o.o.t                                           I ",
"o.M                                             7 ",
"o.,                                           y I ",
"H                                         w H o.o.",
"s                                     9 G o.o.o.o.",
"9                                 6 A o.o.o.o.o.o.",
"*                             6 C o.o.o.o.o.o.o.o.",
"O                         , B o.o.o.o.o.o.o.o.o.o.",
"                          * z ] o.o.o.o.o.o.o.o.o.",
"$                             ; c } o.o.o.o.o.o.o.",
"9                                 , c } o.o.o.o.o.",
"g                                     , n } o.o.o.",
"L                                         , M } o.",
"o.4                                           2 B ",
"o.C                                             w ",
"o.o.i                                         O T ",
"o.o._ ,                                       x o.",
"o.o.o.! ;                                   j o.o.",
"o.o.o.o.^ 9                             O c o.o.o.",
"o.o.o.o.o.} l $                       u ! o.o.o.o.",
"o.o.o.o.o.o.o.` z w             = a Y o.o.o.o.o.o.",
"o.o.o.o.o.o.o.o.o.o.' T H H I ^ o.o.o.o.o.o.o.o.o."
};
