/* XPM */
static char *wall[] = {
/* columns rows colors chars-per-pixel */
"25 44 222 2 ",
"   c #2D044E",
".  c #34054C",
"X  c #39064D",
"o  c #2D0453",
"O  c #340554",
"+  c #3C0654",
"@  c #34045B",
"#  c #3C055B",
"$  c #340563",
"%  c #3E0563",
"&  c #3E046A",
"*  c #44054B",
"=  c #430654",
"-  c #4C0653",
";  c #44065B",
":  c #4A065C",
">  c #530754",
",  c #53065B",
"<  c #5B075C",
"1  c #560959",
"2  c #590858",
"3  c #64075B",
"4  c #6D075C",
"5  c #66085D",
"6  c #6C085D",
"7  c #70075F",
"8  c #71085E",
"9  c #671F49",
"0  c #440562",
"q  c #4B0663",
"w  c #45066C",
"e  c #4C066B",
"r  c #530663",
"t  c #5A0765",
"y  c #54066A",
"u  c #5C066C",
"i  c #5C0869",
"p  c #440675",
"a  c #4D0673",
"s  c #4C067C",
"d  c #45067C",
"f  c #540673",
"g  c #5B0673",
"h  c #55067C",
"j  c #5A067A",
"k  c #580879",
"l  c #6C0861",
"z  c #62076B",
"x  c #64086C",
"c  c #660767",
"v  c #720762",
"b  c #740862",
"n  c #7C0865",
"m  c #7A0767",
"M  c #630773",
"N  c #6B0672",
"B  c #620872",
"V  c #6D0973",
"C  c #6C077A",
"Z  c #63087B",
"A  c #730775",
"S  c #7B0A79",
"D  c #72077A",
"F  c #7F1776",
"G  c #8C403F",
"H  c #9F4C3C",
"J  c #85085D",
"K  c #9A0B5D",
"L  c #84274B",
"P  c #863841",
"I  c #A6254F",
"U  c #820967",
"Y  c #8C0966",
"T  c #85076A",
"R  c #8A076B",
"E  c #820869",
"W  c #8B086C",
"Q  c #940966",
"!  c #9B0A63",
"~  c #92096D",
"^  c #9C0A6F",
"/  c #830B7F",
"(  c #950C78",
")  c #AA0A68",
"_  c #A5086A",
"`  c #AB0B77",
"'  c #B50878",
"]  c #AB1275",
"[  c #BB137A",
"{  c #912B68",
"}  c #B2387C",
"|  c #C23359",
" . c #C1087B",
".. c #E6117C",
"X. c #C02162",
"o. c #AD4D42",
"O. c #BD4D47",
"+. c #BE5274",
"@. c #CE4B4B",
"#. c #C44C49",
"$. c #D04C4F",
"%. c #C75142",
"&. c #D25144",
"*. c #D9534B",
"=. c #CD445E",
"-. c #E15150",
";. c #C2506F",
":. c #CB517C",
">. c #CC5376",
",. c #D95179",
"<. c #E17061",
"1. c #EA4D6D",
"2. c #3F06B3",
"3. c #4C0785",
"4. c #54078C",
"5. c #5B078A",
"6. c #5F0785",
"7. c #59079A",
"8. c #470692",
"9. c #690683",
"0. c #64078A",
"q. c #63088A",
"w. c #64078A",
"e. c #78088A",
"r. c #6A1182",
"t. c #6D0795",
"y. c #6B0892",
"u. c #6C089D",
"i. c #630896",
"p. c #760799",
"a. c #72089E",
"s. c #710794",
"d. c #5907AA",
"f. c #4B1DAF",
"g. c #4D06BC",
"h. c #5507B4",
"j. c #5C07BC",
"k. c #5709B8",
"l. c #6C08A1",
"z. c #6508AC",
"x. c #6608A7",
"c. c #7408A5",
"v. c #7F07A9",
"b. c #6107BC",
"n. c #6A08B8",
"m. c #7B0BB7",
"M. c #4A26AF",
"N. c #6436B8",
"B. c #5407C2",
"V. c #5D07C2",
"C. c #5A0BCD",
"Z. c #581BCA",
"A. c #6408C1",
"S. c #6A08C3",
"D. c #6406CC",
"F. c #6A07CA",
"G. c #6407C3",
"H. c #7A0CCA",
"J. c #6A08D9",
"K. c #6B06D7",
"L. c #6D0ECC",
"P. c #5235D0",
"I. c #663DC1",
"U. c #4937E4",
"Y. c #5036EB",
"T. c #364ECA",
"R. c #354DD3",
"E. c #3C4DD6",
"W. c #384DDA",
"Q. c #3B4DE3",
"!. c #4850CF",
"~. c #434CD4",
"^. c #434DDB",
"/. c #4B4DD8",
"(. c #534DD9",
"). c #5B4CDD",
"_. c #5646D5",
"`. c #4550D1",
"'. c #4950D4",
"]. c #5B51DE",
"[. c #5550D7",
"{. c #6351DA",
"}. c #6A56DE",
"|. c #7744CE",
" X c #4B4DE2",
".X c #464CE5",
"XX c #534AE3",
"oX c #5A4AE5",
"OX c #5B49E8",
"+X c #5A47EB",
"@X c #5747F3",
"#X c #6149EC",
"$X c #6750E0",
"%X c #6246F0",
"&X c #8E0980",
"*X c #840899",
"=X c #980C88",
"-X c #A51487",
";X c #AD199F",
":X c #B60D8F",
">X c #B53998",
",X c #8A0ABC",
"<X c #9C0AAF",
"1X c #A008AF",
"2X c #B80AAA",
"3X c #A417BB",
"4X c #B22BA6",
"5X c #CA0782",
"6X c #C50999",
"7X c #CD0F88",
"8X c #C509BB",
"9X c #D121AC",
"0X c #D54F81",
"qX c #DB528A",
"wX c #D15280",
"eX c #C3418B",
"rX c #850AC7",
"tX c #9D0ECD",
"yX c #8B0AD8",
"uX c #8C0FD8",
"iX c #AA0DD8",
"pX c #B20CD0",
/* pixels */
"W E W * n U T n T 7 7 3 8 n 4 7 T 4 7 3 b b 6 3 l ",
"n Y ! J K ) ) K ) K ) _ ! J ! K U 4 7 4 8 7 n b l ",
"Y [ *.%.$.-.&.%.&.&.&.%.@.K | I ^ m 6 l b b b 8 6 ",
"Q #...7X8X=X2X:X:X' :X2X2X1X9X;X<Xc.l.,XrXe.l 8 6 ",
"Y $.7X|.#XoX#X[.uXH.XX(.]./.].[.oX~././.XXP.g > 3 ",
"8 $.7X{.yX*X*Xz.~.P.L.c.c.u.*Xc.u.5.u.l.J.~.q.1 2 ",
"n $.:X}.4X*._ Z w.y.e.i A z x x N i A u F. Xq.- : ",
"5 O.-X].3X=.( N u z M t i t i y i t D M j.~.4.= , ",
"5 O.-X`.A.V x r r : r : q : r 1 r q u y G..X4.: - ",
"t #.-X XB.e y : ; + + + ; = ; ; ; : y y j.^.p , : ",
"= o.-XT.B.w e + + + + = : O + X ; = q 0 h.R.p : X ",
"- o.-XE.k.w q ; + + + + + . . X O O : y j.R.$ = X ",
"- H ( ^.B.w q # + + + . O . + . ; : r q d.E.a : = ",
"- L F R.g.w q ; q + ; + ; + q ; : ; y y z.C.s , - ",
"* G / T.g.e q = ; + ; + ; + ; = ; ; q e Z.Y.M.r - ",
"= G &XE.V.q y q q + q ; q ; : : : , r j P.Y.M.r - ",
"= 9 9.^.V.f u 0 0 + ; ; ; ; : + + ; u g d.J.5., 1 ",
"= ; s W.B.f e ; ; # % O 0 # # O ; q u g k./.j t , ",
"X ; d R.g.e 0 O O @ @ O O o @ # ; q g f k. XD v = ",
"= + d E.B.p 0 # # o O o @ o O O 0 0 e y A.].{ L * ",
"o % 8.Q.g.d & & $ o $ $ $ o $ $ $ % w p B.~.C 1 0 ",
"O ; 3..XC.h j # % 0 w @ % % 0 0 q e j f D..X7.e + ",
"O : d W.h.9.g u y ; 0 w 0 O 0 q y q u Z K.E.3.; q ",
"O ; s Q.g.a g 0 # # e # 0 % 0 ; 0 0 y g F..X4.q = ",
"- : 3.^.D.f y q q # % # % O % # e q y g D.^.4.q r ",
"; , k ^.k.h k 0 0 # #   o O # @ O # q y h.W.4.t ; ",
"> < j Z.j.k.k.e ; O ; # 0 O ; ; ; : y g V.^.4.t : ",
", > u z.V..XU.p # = ; = ; # ; + q r N g S./.i.r , ",
"- 2 g '.J.Z.f.a ; : : ; : : : = , t c t ,X'.t.< , ",
"- < j ^.F.a e ; : ; ; + ; + : + : ; i v 4X!.y.r = ",
"> 2 k ^.G.y t ; : : : + : ; ; + r , t T eX!.7.g < ",
"- , h ^.k.r y : ; X + . O . + = ; : y v >XN.i.h < ",
"* = 0 E.A.u q . X O X X + + = + = : t t S D 0.j 1 ",
"* 3 B `.k.q r = ; X O O : = + + ; ; r r C u F V > ",
"2 8 { {.S.g i - = ; : = ; + + = : , t t x.N.;.[ c ",
"2 < e.).S.y i : r , : : : = r - , t x B b.[.:.] 5 ",
"2 - 9.~.b.M A r t , u u t t N i B C V C S.$X:.] 5 ",
"2 > y.XXJ.q.s.6.s.0.y.w.p.6.p.u.n.z.a.t.K.{.:.[ n ",
"2 2 e.'.@XXXOX!.XX+X%X).OX#X+XOXXXP.#X].%X$X,.[ 5 ",
"5 > V m.rXn.rX,XyXH.H.H.uXrXiXtXpX1XiXiXiX8X1.[ U ",
"8 8 v m / :X| ) =XS =Xe.,X>XqX:.>.>.,.;.qX,.<.' U ",
"4 7 n 8 n J K _ Y 4 U b ( ` 5X' ' '  .5X5X`  .^ U ",
"l b n 7 8 8 b 7 n n U 8 U U ~ T W U W ~ T 4 n n n ",
"l 3 6 b 7 4 7 7 Y 7 6 n b 4 b 7 T n T U n * W U R "
};
