/* XPM */
static char * Untitled_xpm[] = {
"25 25 2 1",
" 	c #811DEF",
".	c #000000",
"        .........        ",
"        .........        ",
"        .........        ",
"        .........        ",
"        .........        ",
"        .........        ",
"        .........        ",
"        .........        ",
"        .........        ",
"        .........        ",
"        .........        ",
"        .........        ",
"        .........        ",
"        .........        ",
"        .........        ",
"        .........        ",
"        .........        ",
"        .........        ",
"        .........        ",
"        .........        ",
"        .........        ",
"        .........        ",
"        .........        ",
"        .........        ",
"        .........        "};
