/* XPM */
static char *x[] = {
/* columns rows colors chars-per-pixel */
"50 52 219 2 ",
"   c #0E0A0B",
".  c #291D00",
"X  c #341A04",
"o  c #1F351F",
"O  c #12172A",
"+  c #2C2B29",
"@  c #312C2D",
"#  c #38383B",
"$  c #4A2B0E",
"%  c #512600",
"&  c #563317",
"*  c #643B02",
"=  c #7B3D03",
"-  c #553B26",
";  c #0C4E10",
":  c #32590F",
">  c #0D6B0D",
",  c #1B512D",
"<  c #2B4E2D",
"1  c #136C2C",
"2  c #504807",
"3  c #7A4208",
"4  c #7A5C00",
"5  c #6F4017",
"6  c #5F4731",
"7  c #7A482A",
"8  c #6A4B34",
"9  c #1F284A",
"0  c #272D4F",
"q  c #3A3C44",
"w  c #37374A",
"e  c #373D53",
"r  c #2C3868",
"t  c #323F76",
"y  c #3D434B",
"u  c #1B6140",
"i  c #246656",
"p  c #3C4463",
"a  c #334078",
"s  c #2F7470",
"d  c #424345",
"f  c #4C4C4C",
"g  c #53534B",
"h  c #464851",
"j  c #525353",
"k  c #57585C",
"l  c #744F49",
"z  c #775149",
"x  c #72514F",
"c  c #4F624F",
"v  c #766853",
"b  c #434A68",
"n  c #4E5364",
"m  c #555A6E",
"M  c #414B75",
"N  c #434E7D",
"B  c #48527E",
"V  c #6F5B72",
"C  c #5D6173",
"Z  c #626363",
"A  c #6C6C6C",
"S  c #6E726E",
"D  c #676B7C",
"F  c #7A657D",
"G  c #6E717C",
"H  c #727272",
"J  c #7A797A",
"K  c #843E00",
"L  c #8B4707",
"P  c #944600",
"I  c #954906",
"U  c #9C4A00",
"Y  c #855A00",
"T  c #985205",
"R  c #9F5F00",
"E  c #894C15",
"W  c #8E5218",
"Q  c #A74F01",
"!  c #A85204",
"~  c #B35500",
"^  c #BA5800",
"/  c #B95A07",
"(  c #B05B19",
")  c #8A6606",
"_  c #B46500",
"`  c #B17100",
"'  c #B06110",
"]  c #8A5221",
"[  c #935A26",
"{  c #865635",
"}  c #A15A2A",
"|  c #9A682D",
" . c #A37227",
".. c #BA763A",
"X. c #C55D00",
"o. c #C85E00",
"O. c #C96403",
"+. c #D96601",
"@. c #D86901",
"#. c #C37C00",
"$. c #D97600",
"%. c #E46B00",
"&. c #EB6F00",
"*. c #E47700",
"=. c #EE7000",
"-. c #F27300",
";. c #FC7600",
":. c #F67800",
">. c #FE7A00",
",. c #E67712",
"<. c #8C5C4E",
"1. c #956D4A",
"2. c #A27852",
"3. c #856D69",
"4. c #078F08",
"5. c #06AA06",
"6. c #1CA41C",
"7. c #AD8200",
"8. c #B58100",
"9. c #C68200",
"0. c #D68901",
"q. c #CF9C00",
"w. c #D79602",
"e. c #E68B00",
"r. c #F68000",
"t. c #FD8200",
"y. c #F28D00",
"u. c #FC8B00",
"i. c #E29700",
"p. c #F79600",
"a. c #FD9500",
"s. c #FF9D00",
"d. c #E4A600",
"f. c #EBA600",
"g. c #FDA300",
"h. c #F2AC00",
"j. c #FFAB00",
"k. c #F7B400",
"l. c #FDB300",
"z. c #F7B800",
"x. c #FFBD00",
"c. c #EC8323",
"v. c #FFC000",
"b. c #BA8353",
"n. c #9E8B7A",
"m. c #B29276",
"M. c #394886",
"N. c #396C83",
"B. c #3F7495",
"V. c #475382",
"C. c #525E8D",
"Z. c #4A5993",
"A. c #4C5C9D",
"S. c #525E92",
"D. c #586187",
"F. c #4E689C",
"G. c #646A82",
"H. c #796783",
"J. c #71648B",
"K. c #787A83",
"L. c #736B99",
"P. c #485CAC",
"I. c #5363A4",
"U. c #5364AD",
"Y. c #5568B7",
"T. c #5577B5",
"R. c #7171B1",
"E. c #5A6EC2",
"W. c #556CC9",
"Q. c #5C72CD",
"!. c #5D75D4",
"~. c #587ED0",
"^. c #5E77DB",
"/. c #6E76C3",
"(. c #6E78CB",
"). c #697AD5",
"_. c #6179DC",
"`. c #6C7DDB",
"'. c #5F78E1",
"]. c #647DE5",
"[. c #5A80D6",
"{. c #6A81E7",
"}. c #6581EE",
"|. c #6783F1",
" X c #6985F6",
".X c #6A87FA",
"XX c #6B88FE",
"oX c #848484",
"OX c #848589",
"+X c #8B8B8C",
"@X c #918E89",
"#X c #939494",
"$X c #979C97",
"%X c #9B9B9B",
"&X c #BD9E83",
"*X c #A69B92",
"=X c #B7A799",
"-X c #9E9FA0",
";X c #A5A5A5",
":X c #A8A6A5",
">X c #ABABAB",
",X c #BAB2AA",
"<X c #B4B4B3",
"1X c #BABABA",
"2X c #CDB39B",
"3X c #D2BDAB",
"4X c #C3C1BF",
"5X c #D6C6B9",
"6X c #C2C2C2",
"7X c #CCC8C5",
"8X c #CBCBCB",
"9X c #DAD2CB",
"0X c #D3D3D3",
"qX c #DBDBDB",
"wX c #E5DCD5",
"eX c #E5E5E5",
"rX c #EDE8E4",
"tX c #ECECEC",
"yX c #F6F6F6",
/* pixels */
"XXXXXXXXXXXXXXXXXXXXXXXXXXXXXXXXXXXX|.r 9 W.M.O P.P.O Z.].XXXXXXXXXXXXXXXXXXXXXXXXXXXXXXXXXXXXXXXXXX",
"XXXXXXXXXXXXXXXXXXXXXXXXXXXXXXXXXXXX XP.t M.9   r M.t W.].XXXXXXXXXXXXXXXXXXXXXXXXXXXXXXXXXXXXXXXXXX",
"XXXXXXXXXXXXXXXXXXXXXXXXXXXXXXXXXXXX.X].U.+       0 W.`.].].XXXXXXXXXXXXXXXXXXXXXXXXXXXXXXXXXXXXXXXX",
"XXXXXXXXXXXXXXXXXXXXXXXXXXXXXXXXXXXX XL.8 & % % % & x x F `.XXXXXXXXXXXXXXXXXXXXXXXXXXXXXXXXXXXXXXXX",
"XXXXXXXXXXXXXXXXXXXXXXXXXXXXXXXXXX`.R.<.I Q T R R R R R } L.`..X.X.X.XXXXXXXXXXXXXXXXXXXXXXXXXXXXXXX",
"XXXXXXXXXXXXXXXXXXXXXXXXXXXXXXXX.XR.{ X.&.&.e.d.d.d.d.d.w.[ V {.].XXXXXXXXXXXXXXXXXXXXXXXXXXXXXXXXXX",
"XXXXXXXXXXXXXXXXXXXXXXXXXXXXXX{.L.<.X.%.>.a.9.Y 4 4 ) 9.$.* # a Q.XXXXXXXXXXXXXXXXXXXXXXXXXXXXXXXXXX",
"XXXXXXXXXXXXXXXXXXXXXXXXXXXXXX`.z ! ,.;.:.w.) # + + @ W ! & + w P.].].XXXXXXXXXXXXXXXXXXXXXXXXXXXXXX",
"XXXXXXXXXXXXXXXXXXXXXXXXXXXXXX`.z Q -.;.@.* v <X1X1X,Xv - $X1X>Xn t ].XXXXXXXXXXXXXXXXXXXXXXXXXXXXXX",
"XXXXXXXXXXXXXXXXXXXXXXXXXXXXXX`.l Q -.>.o.X H tXyXqX-XJ A +X4XqXj 9 ^.XXXXXXXXXXXXXXXXXXXXXXXXXXXXXX",
"XXXXXXXXXXXXXXXXXXXXXXXX.XXX.X(.7 ! &.;.o.X S tXyX<X# +X1X- H 0Xj 9 _.XXXXXXXXXXXXXXXXXXXXXXXXXXXXXX",
"XXXXXXXXXXXXXXXXXXXXXXXX.X.XR.x ( X.^ +.o.X H rXyX>X+ oX6X# A 8Xj 9 ^.XXXXXXXXXXXXXXXXXXXXXXXXXXXXXX",
"XXXXXXXXXXXXXXXXXXXXXXXX|.(.3.Q *.$.! $.O.% J rXyX1Xj @X:X6 1.2Xg w _.XXXXXXXXXXXXXXXXXXXXXXXXXXXXXX",
"XXXXXXXXXXXXXXXXXXXXXXXX(.z ( *.g.k.f.y.@.L n.rXyXrX7Xn.[ O.,.c.I l )..XXXXXXXXXXXXXXXXXXXXXXXXXXXXX",
"XXXXXXXXXXXXXXXXXXXXXXXX/.7 ^ t.j.v.x.j.y.O...m.m.2X&X..O.y.s.p.0. .F (..XXXXXXXXXXXXXXXXXXXXXXXXXXX",
"XXXXXXXXXXXXXXXXXXXXXXXX/.7 ^ >.g.x.v.x.j.t.O.I L P T O.u.l.x.x.l.w.E J..XXXXXXXXXXXXXXXXXXXXXXXXXXX",
"XXXXXXXXXXXXXXXXXXXXXXXX/.7 ^ :.u.s.x.x.j.t.=.+.+.$.w.f.j.v.v.x.s.$.L J..XXXXXXXXXXXXXXXXXXXXXXXXXXX",
"XXXXXXXXXXXXXXXXXXXXXXXX`.V } +.-.u.g.j.g.t.>.>.>.*.8.7.` 7.q.z.u.+.L J..XXXXXXXXXXXXXXXXXXXXXXXXXXX",
"XXXXXXXXXXXXXXXXXXXXXXXX X`.F I +.>.>.t.>.>.;.>.>.^ % . . . ) h.u.O.E J..X.X.XXXXXXXXXXXXXXXXXXXXXXX",
"XXXXXXXXXXXXXXXXXXXXXXXXXXXX/.F } o.;.>.;.>.;.;.>.+.P P L R 8.e.@.[ H.(..X.XXXXXXXXXXXXXXXXXXXXXXXXX",
"XXXXXXXXXXXXXXXXXXXXXXXX}.[.[.T.8 ! @.%.%.%.-.;.;.;.:.=.*.i.e.@.U l `.XXXXXXXXXXXXXXXXXXXXXXXXXXXXXX",
"XXXXXXXXXXXXXXXXXXXXXX.X[.i 1 , 5 K P P P U X.:.;.;.:.X.T T T P L z `..XXXXXXXXXXXXXXXXXXXXXXXXXXXXX",
"XXXXXXXXXXXXXXXX.X~.F.B.s 4.> 2 L ~ ~ _ ` ` _ X.o.o.X.^ ~ ~ _ ` ` | H.(..XXXXXXXXXXXXXXXXXXXXXXXXXXX",
"XXXXXXXXXXXXXX X}.B.1 > > 4.: 3 _ -.:.p.z.k.9.L = = = ^ &.-.y.k.z.w.] J..XXXXXXXXXXXXXXXXXXXXXXXXXXX",
"XXXXXXXXXXXXXX}.N.1 4.5.5.1 : & L X.:.g.v.x.8.= & $ & = / &.a.x.v.w.L J.XXXXXXXXXXXXXXXXXXXXXXXXXXXX",
"XXXXXXXXXXXX.X[.u > 4.5.6.c g g = Q :.a.j.j.#.= 6 j j 5 L %.u.j.l.0.L Z Q.|.XXXXXXXXXXXXXXXXXXXXXXXX",
"XXXXXXXXXXXX.X[.u ; < < 6 $X>X$X<.! -.>.r.:.O.E @X>X:X1.I %.>.>.t.@.L 6 b Q..XXXXXXXXXXXXXXXXXXXXXXX",
"XXXXXXXXXX|.T.s , < A H #X8XqX0X=Xb.' ^ / / ..&X7X9X6X*X2.' ^ ^ ^ ( 2.3.G C.Y..XXXXXXXXXXXXXXXXXXXXX",
"XXXXXXXXXX XN.; o k ,X6X0XtXyXyXyX3X| ] ] [ &XtXyXeX8X6X=X1.[ [ [ 2.1X4X;Xf V.|.XXXXXXXXXXXXXXXXXXXX",
"XXXXXXXXXX|.N.; o Z <XqXtXyXyXyXyXrX5X,X=X3XwXyXyXyXrX0X6X7X5X5X5X9XeX0X:Xf N }.XXXXXXXXXXXXXXXXXXXX",
"XXXXXXXXXX XN., c +X8XtXyXyXyXyXyXyXyXeXqXtXyXyXyXyXyXeXqXtXyXyXyXyXyXeX6XJ D.U.].XXXXXXXXXXXXXXXXXX",
"XXXXXXXXXX.XZ.< #X8XtXyXyXyXyXyXyXyXyXyXyXyXyXtXyXyXyXtXrXyXyXyXyXyXyXyXeX6XOXy Y.XXXXXXXXXXXXXXXXXX",
"XXXXXXXXXX.XZ.d %X0XyXyXyXyXyXyXyXyXyXyXyXyX1X@X0XyXyX>X#XqXyXyXyXyXyXyXtX8XoXq Y.XXXXXXXXXXXXXXXXXX",
"XXXXXXXXXX XZ.q %X0XyXyXyXyXyXyXyXyXyXyXyXyX%Xf 1XyXtXoXj 0XyXyXyXyXyXyXtX8XoXq U.XXXXXXXXXXXXXXXXXX",
"XXXXXXXXXX.XZ.d %X0XyXyXyXyXyXyXyXyXyXyXyXyX;Xf 1XyXtXoXj 8XyXyXyXyXyXyXtX8XoXq Y.XXXXXXXXXXXXXXXXXX",
"XXXXXXXXXXXXW.C.G %X0XtXyXyXyXyXyXyXyXyXyXyX%Xf 1XyXtXoXj 0XyXyXyXyXyXtX8X#XG.S.!.XXXXXXXXXXXXXXXXXX",
"XXXXXXXXXXXX.X!.p Z 1XqXyXyXyXyXyXyXyXyXyXyX;XZ 6XyXtX#XA 0XyXyXyXyXtXqX>Xj N }.XXXXXXXXXXXXXXXXXXXX",
"XXXXXXXXXXXXXX'.p Z <X8XqXyXyXyXyXyXyXyXyXyXqX6XeXyXyX0X6XeXyXyXyXyX0X8X;Xf N }.XXXXXXXXXXXXXXXXXXXX",
"XXXXXXXXXXXXXX].Z.C OX#X;XqXeXtXyXyXyXyXtX6X0XyXyXyXyXyXyXyXyXeXeX0X%X#XOXm P. XXXXXXXXXXXXXXXXXXXXX",
"XXXXXXXXXXXXXX X].U.h q k >X7X0XtXyXyXyX6XZ #XtXyXyXyXyXtXyXeX8X8X%Xf # b Y.|.XXXXXXXXXXXXXXXXXXXXXX",
"XXXXXXXXXXXXXXXXXX_.A.e f >X8XeXyXyXtX<XH y oXtXyXyXyX<X%XeXtXeX8X#Xq p U.].XXXXXXXXXXXXXXXXXXXXXXXX",
"XXXXXXXXXXXXXXXX.X|.).B Z <XqXyXyXyXtX$Xj g +X8X0X0X8X+XH 0XyXyXqX;Xk C.^. XXXXXXXXXXXXXXXXXXXXXXXXX",
"XXXXXXXXXXXXXXXXXXE.b K.<XqXtXyXyXyXyXeX8X8X#Xk j k k %X0XtXyXyXtX0X;XD M !.XXXXXXXXXXXXXXXXXXXXXXXX",
"XXXXXXXXXXXXXXXXXXU.q OX8XyXyXyXyXyXyXyXyXyX4XoXJ J oX6XyXyXyXyXyXtX6XH e Q.XXXXXXXXXXXXXXXXXXXXXXXX",
"XXXXXXXXXXXXXXXXXXU.q oX8XtXyXyXyXyXyXyXyXyXtXeXtXtXtXtXyXyXyXyXyXeX6XH e Q.XXXXXXXXXXXXXXXXXXXXXXXX",
"XXXXXXXXXXXXXXXXXXU.q oX8XtXyXyXyXyXyXyXyXyXeXqXtXyXyXyXyXyXyXyXyXeX6XS e Q.XXXXXXXXXXXXXXXXXXXXXXXX",
"XXXXXXXXXXXXXXXXXXE.M K.>XqXyXyXyXyXyXyXyXtX6X:X0XtXyXyXyXyXyXyXtX0X%XD N _.XXXXXXXXXXXXXXXXXXXXXXXX",
"XXXXXXXXXXXXXXXXXX X!.V.Z <XqXyXyXyXyXyXtX8XOXk %X0XyXyXyXyXyXtX0X-Xk S.'. XXXXXXXXXXXXXXXXXXXXXXXXX",
"XXXXXXXXXXXXXXXXXXXX XY.S.G ;XqXqXqXqXqX6XoXG.S.D #X0XqXqXqXqX0X#XG.Z.Q..XXXXXXXXXXXXXXXXXXXXXXXXXXX",
"XXXXXXXXXXXXXXXXXXXXXX.X!.b G >X>X>X>X>X#Xn A._.V.Z -X>X>X>X>X-XC V.]..XXXXXXXXXXXXXXXXXXXXXXXXXXXXX",
"XXXXXXXXXXXXXXXXXXXXXXXX|.Q.D.k g g j j m U._. X_.I.k g j g j k I.!. XXXXXXXXXXXXXXXXXXXXXXXXXXXXXXX",
"XXXXXXXXXXXXXXXXXXXXXXXXXX.XE.a a M M M Z.{.XXXXXX!.V.a a M M V.). XXXXXXXXXXXXXXXXXXXXXXXXXXXXXXXXX"
};
