/* XPM */
static char *x2[] = {
/* columns rows colors chars-per-pixel */
"50 52 217 2 ",
"   c #130D0D",
".  c #2A1900",
"X  c #1B381B",
"o  c #3E230E",
"O  c #29221B",
"+  c #161B33",
"@  c #1F2128",
"#  c #3D2D21",
"$  c #312E2C",
"%  c #263C21",
"&  c #343433",
"*  c #393A3D",
"=  c #542802",
"-  c #4A341A",
";  c #6E390B",
":  c #753C07",
">  c #4D3926",
",  c #663F2D",
"<  c #0D5511",
"1  c #204F02",
"2  c #0E6E0D",
"3  c #20621F",
"4  c #2A452F",
"5  c #394939",
"6  c #524618",
"7  c #684606",
"8  c #7F4208",
"9  c #715500",
"0  c #68401D",
"q  c #7D4519",
"w  c #764926",
"e  c #645321",
"r  c #774B38",
"t  c #212A4F",
"y  c #2D334E",
"u  c #3A3C46",
"i  c #383C4C",
"p  c #393F57",
"a  c #2E3B6E",
"s  c #3D4257",
"d  c #246C56",
"f  c #3D4464",
"g  c #35437D",
"h  c #326C77",
"j  c #464749",
"k  c #4A4A4B",
"l  c #4C5457",
"z  c #545454",
"x  c #565758",
"c  c #75514E",
"v  c #71564D",
"b  c #576D57",
"n  c #70655B",
"m  c #444B67",
"M  c #424B79",
"N  c #4F5670",
"B  c #795C66",
"V  c #546172",
"C  c #676767",
"Z  c #6C6C6C",
"A  c #696C77",
"S  c #78627A",
"D  c #727273",
"F  c #75777B",
"G  c #7A7B7B",
"H  c #874607",
"J  c #8D4400",
"K  c #924500",
"L  c #954804",
"P  c #965202",
"I  c #874A16",
"U  c #965016",
"Y  c #A44E00",
"T  c #AB5200",
"R  c #A95B04",
"E  c #B45501",
"W  c #B95900",
"Q  c #A65714",
"!  c #B35E10",
"~  c #8E6300",
"^  c #966E00",
"/  c #A26300",
"(  c #AC6700",
")  c #B86801",
"_  c #AB7A07",
"`  c #8F5328",
"'  c #965938",
"]  c #AA5C24",
"[  c #97683D",
"{  c #A76E28",
"}  c #C25C00",
"|  c #C76407",
" . c #D56400",
".. c #DA6905",
"X. c #C57300",
"o. c #D87A00",
"O. c #C86B14",
"+. c #E36D02",
"@. c #E96E00",
"#. c #EC7200",
"$. c #E87B00",
"%. c #F27400",
"&. c #FB7700",
"*. c #F77C00",
"=. c #FE7900",
"-. c #976C43",
";. c #9D714A",
":. c #937358",
">. c #B77D4A",
",. c #866164",
"<. c #0A8C0E",
"1. c #03B803",
"2. c #7F837F",
"3. c #BC8802",
"4. c #C38301",
"5. c #D78F00",
"6. c #D29201",
"7. c #E68700",
"8. c #F78600",
"9. c #FF8B00",
"0. c #EB9600",
"q. c #FE9300",
"w. c #FE9D00",
"e. c #F58214",
"r. c #DFA800",
"t. c #E4A600",
"y. c #FEA100",
"u. c #F5AA00",
"i. c #FEAC00",
"p. c #FBB500",
"a. c #FEBD00",
"s. c #FFC000",
"d. c #A6805E",
"f. c #B58458",
"g. c #B18E6F",
"h. c #AC8D71",
"j. c #C49B76",
"k. c #3B4B8D",
"l. c #3E4F94",
"z. c #3C738D",
"x. c #48568C",
"c. c #535D82",
"v. c #4B5998",
"b. c #5C6383",
"n. c #59638C",
"m. c #476D98",
"M. c #6F678A",
"N. c #7A7C83",
"B. c #716793",
"V. c #716899",
"C. c #4B5DA5",
"Z. c #5162A6",
"A. c #5163A9",
"S. c #4C72AE",
"D. c #5467B3",
"F. c #5668B5",
"G. c #566ABB",
"H. c #596CBB",
"J. c #736DA2",
"K. c #6D70B2",
"L. c #6F71B6",
"P. c #596EC3",
"I. c #566CC9",
"U. c #5C72CB",
"Y. c #5C76D5",
"T. c #6E77C6",
"R. c #6D7BD2",
"E. c #6279DC",
"W. c #6C7DDC",
"Q. c #5F79E2",
"!. c #637DE4",
"~. c #6B7EE0",
"^. c #647FEA",
"/. c #7F8083",
"(. c #5C81DB",
"). c #6681ED",
"_. c #6B82EA",
"`. c #6684F2",
"'. c #6984F5",
"]. c #6B87FB",
"[. c #6B88FE",
"{. c #838383",
"}. c #83858A",
"|. c #8C8C8C",
" X c #92908E",
".X c #969696",
"XX c #9D9D9D",
"oX c #AC9A8A",
"OX c #9FA29F",
"+X c #AFA49A",
"@X c #A3A3A3",
"#X c #A7A8A8",
"$X c #ABABAB",
"%X c #B5AFA9",
"&X c #B7B1AC",
"*X c #B4B4B4",
"=X c #BCBCBC",
"-X c #C5AB94",
";X c #CAB6A5",
":X c #C3BBB4",
">X c #D1C6BD",
",X c #C5C5C4",
"<X c #CAC7C4",
"1X c #CCCCCC",
"2X c #DDD3C9",
"3X c #D3D3D3",
"4X c #DDD7D1",
"5X c #DBDBDB",
"6X c #E0DAD4",
"7X c #E6DFD9",
"8X c #E5E0DC",
"9X c #E3E3E3",
"0X c #ECE7E3",
"qX c #ECECEC",
"wX c #F0EDEB",
"eX c #F2F0EE",
"rX c #F6F6F6",
/* pixels */
"[.[.[.[.[.[.[.[.[.[.[.[.[.[.[.[.[.[.[.[.I.+ a Y.t t I.a + I.[.[.[.[.[.[.[.[.[.[.[.[.[.[.[.[.[.[.[.[.",
"[.[.[.[.[.[.[.[.[.[.[.[.[.[.[.[.[.[.[.[.!.k.k.a + + k.a l.!.[.[.[.[.[.[.[.[.[.[.[.[.[.[.[.[.[.[.[.[.",
"[.[.[.[.[.[.[.[.[.[.[.[.[.[.[.[.[.[.[._.~.E.x.        g W.'.[.[.[.[.[.[.[.[.[.[.[.[.[.[.[.[.[.[.[.[.",
"[.[.[.[.[.[.[.[.[.[.[.[.[.[.[.[.[.[.'.J.c c , = = = = , S W.[.[.[.[.[.[.[.[.[.[.[.[.[.[.[.[.[.[.[.[.",
"[.[.[.[.[.[.[.[.[.[.[.[.[.[.].].[._.L.:.R ^ / / ^ R Y Y ` B.R.].[.[.[.[.[.[.[.[.[.[.[.[.[.[.[.[.[.[.",
"[.[.[.[.[.[.[.[.[.[.[.[.[.].].].`.K.r _ u.t.t.t.t.0.$.%. .U M.~.].[.[.[.[.[.[.[.[.[.[.[.[.[.[.[.[.[.",
"[.[.[.[.[.[.[.[.[.[.[.[.[.[.].`.v.y o R 7.~ 9 9 9 / 0.9.%. .] M.R.[.[.[.[.[.[.[.[.[.[.[.[.[.[.[.[.[.",
"[.[.[.[.[.[.[.[.[.[.[.[.[.[.Q.G.f & & I T > & & & e 4.$.&.&.} q L.[.[.[.[.[.[.[.[.[.[.[.[.[.[.[.[.[.",
"[.[.[.[.[.[.[.[.[.[.[.[.[.].C.y |.,X=Xn > +X,X,X,X X- R =.=.} q L.[.[.[.[.[.[.[.[.[.[.[.[.[.[.[.[.[.",
"[.[.[.[.[.[.[.[.[.[.[.[.[.].l.+ #X4X.XG D {.=XeXrX$XO K =.=.} w L.[.[.[.[.[.[.[.[.[.[.[.[.[.[.[.[.[.",
"[.[.[.[.[.[.[.[.[.[.[.[.[.].l.@ #X*X& {.=X* D qXrX#XO K &.%.} I J.^.[.[.[.[.[.[.[.[.[.[.[.[.[.[.[.[.",
"[.[.[.[.[.[.[.[.[.[.[.[.[.].l.@ @X$X$ {.,X* Z qXrX$XO K @.E } } ' M.^.].[.[.[.[.[.[.[.[.[.[.[.[.[.[.",
"[.[.[.[.[.[.[.[.[.[.[.[.[.].v.- g.j.0 :.+XC .XqXrX%X- Y @.) X.8.W ' J.E.[.[.[.[.[.[.[.[.[.[.[.[.[.[.",
"[.[.[.[.[.[.[.[.[.[.[.[.].'.M.q O.e.$.! -.;X7XwXqX;XI W *.u.p.i.8.} ` K.].[.[.[.[.[.[.[.[.[.[.[.[.[.",
"[.[.[.[.[.[.[.[.[.[.[.[._.M.-.4.0.y.y.o.O.f.g.g.g.f.O.$.y.a.a.p.9. .H V.].].[.[.[.[.[.[.[.[.[.[.[.[.",
"[.[.[.[.[.[.[.[.[.[.[.[.R.r ) u.a.a.a.y.$.R P L L E %.y.a.a.a.i.9. .I V.].].[.[.[.[.[.[.[.[.[.[.[.[.",
"[.[.[.[.[.[.[.[.[.[.[.[.R.r E 8.i.a.a.p.u.t.7.+.+.#.=.y.a.a.i.9.*. .I V.].].[.[.[.[.[.[.[.[.[.[.[.[.",
"[.[.[.[.[.[.[.[.[.[.[.[.R.r E *.i.r._ ^ ^ ^ ) =.=.=.=.9.y.y.9.&...] B T.].].[.[.[.[.[.[.[.[.[.[.[.[.",
"[.[.[.[.[.[.[.[.[.[.].].R.v Q #.y.3.o . . . J %.=.=.=.=.=.=.&.+.Q B _.'.].].].[.[.[.[.[.[.[.[.[.[.[.",
"[.[.[.[.[.[.[.[.[.[.].].'.L.,.( $.5.3.( T E } &.=.=.=.=.=.&. .Q ,.T._.[.].].[.[.[.[.[.[.[.[.[.[.[.[.",
"[.[.[.[.[.[.[.[.[.[.[.[._.S.V 7 R o.5.5. . .#.=.=.=.=.@. . .T q S R.'.].[.[.[.[.[.[.[.[.[.[.[.[.[.[.",
"[.[.[.[.[.[.[.[.[.].'.'.(.d < 1 7 J J K K K W %.&.&.%.W K J J 8 q B _.'.[.[.[.[.[.[.[.[.[.[.[.[.[.[.",
"[.[.[.[.[.[.[.[.[.(.z.h d <.2 6 P } } X.4.4.) E E E E W } } | 3.4.{ ,.T.[.[.[.[.[.[.[.[.[.[.[.[.[.[.",
"[.[.[.[.[.[.[.[.(.z.2 2 <.<.1 7 W @.*.w.a.p.4.H : ; : T @.&.q.p.a.6.I B.[.[.[.[.[.[.[.[.[.[.[.[.[.[.",
"[.[.[.[.[.[.[.).h 2 <.1.1.3 4 - : E %.y.a.s.4.8 - # - ; Y #.q.a.a.6.I B.[.[.[.[.[.[.[.[.[.[.[.[.[.[.",
"[.[.[.[.[.[.[.(.d < 2 <.<.2.Z b w Y %.q.y.y.X.8 v C C w L +.9.y.w.5.H x G.^.[.[.[.[.[.[.[.[.[.[.[.[.",
"[.[.[.[.[.[.`.(.d < & 5 l OX=X&X:.Q +.#.#.%.| ` oX=X%X:.U ..%.%.#.| I , m Y.^.[.[.[.[.[.[.[.[.[.[.[.",
"[.[.[.[.[.[.S.d 4 5 2.|.OX1X9X9X>Xj.! Y Y Y >.;X2X5X,X+Xh.Q Y Y Y { h. XN.N G.^.[.[.[.[.[.[.[.[.[.[.",
"[.[.[.].[.[.z.< X z $X,X3XrXrXrXrX>Xf.-.[ -.-XeXrXqX3X,X&Xd.;.;.;.h.<X<XOXj x.'.[.[.[.[.[.[.[.[.[.[.",
"[.[.[.].[.[.m.< % x *X5XrXrXrXrXrXeX8X>X:X4XqXrXrXrXeX3X<X6X7X8X7X0XqX3X@Xk x.'.[.[.[.[.[.[.[.[.[.[.",
"[.[.].].].].S.4 b .X3XqXrXrXrXrXrXrXrXqX9XrXrXrXrXrXrX0X8XrXrXrXrXrXrXqX<X|.b.v.E.[.[.[.[.[.[.[.[.[.",
"[.[.].].].].C.s |.1XqXrXrXrXrXrXrXrXrXrXrXrX9X5XqXrXrX9X5XeXrXrXrXrXrXrXqX,XG i P.[.[.[.[.[.[.[.[.[.",
"[.[.[.[.[.[.Z.u |.1XeXrXrXrXrXrXrXrXrXrXrXrX*XD ,XrXeXXXG 5XrXrXrXrXrXrXqX,XG i P.[.[.[.[.[.[.[.[.[.",
"[.[.[.[.[.].A.u |.3XeXrXrXrXrXrXrXrXrXrXrXrXXXk *XrXqX{.z 3XrXrXrXrXrXrXqX,XG i P.[.[.[.[.[.[.[.[.[.",
"[.[.[.[.[.[.D.s }.,XqXrXrXrXrXrXrXrXrXrXrXrX#Xk *XrXqX{.x 1XrXrXrXrXrXrX9X=XF s U.[.[.[.[.[.[.[.[.[.",
"[.[.[.[.[.[.!.S.V N.,X9XrXrXrXrXrXrXrXrXrXrXOXk =XrXqX{.x 3XrXrXrXrXrX9X*XD b.H.).[.[.[.[.[.[.[.[.[.",
"[.[.[.[.[.[.[.).M z *X3XeXrXrXrXrXrXrXrXrXrX*XG <XrXeX@X}.5XrXrXrXrX9X3XOXj x.'.[.[.[.[.[.[.[.[.[.[.",
"[.[.[.[.[.[.].).M l #X=X1XqXrXrXrXrXrXrXrXrX9X8XqXrXrXqX9XrXrXrXrX9X,X=XXXj v.'.[.[.[.[.[.[.[.[.[.[.",
"[.[.[.[.[.[.[.`.G.n.A Z /.,X5X5XqXrXrXrX9XOX=XeXrXrXrXrXrXrXqX5X5X*XG Z A Z.P.].[.[.[.[.[.[.[.[.[.[.",
"[.[.[.[.[.[.[.[.].U.f * j @X,X1X9XrXrX9X*Xl }.qXrXrXrX9X5XqX9X<X,X|.u u M Y.].].[.[.[.[.[.[.[.[.[.[.",
"[.[.[.[.[.[.[.[.[.`.U.M j @X3XqXrXrXrXOXl * /.qXrXrXqXXXG 5XrXqX1X|.u x.Y.'.[.[.[.[.[.[.[.[.[.[.[.[.",
"[.[.[.[.[.[.[.[.].!.D.b.G =X9XrXrXrXqX*XG 2.|.OX@X@X@X|..X9XrXrX9X*XD n.G.).[.[.[.[.[.[.[.[.[.[.[.[.",
"[.[.[.[.[.[.[.[.].P.s F =X9XrXrXrXrXrXrXqX9X#Xl j j z #XqXrXrXrXrX5X*XZ f E.[.[.[.[.[.[.[.[.[.[.[.[.",
"[.[.[.[.[.[.[.[.[.P.i G <XqXrXrXrXrXrXrXrXrX5X*X%X*X*X3XrXrXrXrXrX9X=XC p Y.[.[.[.[.[.[.[.[.[.[.[.[.",
"[.[.[.[.[.[.[.[.].P.u G ,XqXrXrXrXrXrXrXrXrXqX9XrXrXrXrXrXrXrXrXrX9X=XZ p Y.].[.[.[.[.[.[.[.[.[.[.[.",
"[.[.[.[.[.[.[.[.].P.i G ,X9XrXrXrXrXrXrXrXrX9X,X9XrXrXrXrXrXrXrXrX9X=XC f E.[.[.[.[.[.[.[.[.[.[.[.[.",
"[.[.[.[.[.[.[.[.].!.Z.b.}.,XqXrXrXrXrXrXqX9X$Xh.=X9XrXrXrXrXrXrX9X*XN.c.A.).[.[.[.[.[.[.[.[.[.[.[.[.",
"[.[.[.[.[.[.[.[.].].`.Z.m |.,XqXrXqXqXqX5X*XN.m }.=X9XqXqXqXqX9X=X}.m F.].].[.[.[.[.[.[.[.[.[.[.[.[.",
"[.[.[.[.[.[.[.[.[.[.]._.F.N {.,X1X1X1X1X*XC x.F.N F =X1X1X1X<X=XD N P._.[.[.[.[.[.[.[.[.[.[.[.[.[.[.",
"[.[.[.[.[.[.[.[.[.[.[.[._.v.V 2.{.{.{.{.N.c.F.^.A.c.N.{.{.{.{.G c.A.'.].[.[.[.[.[.[.[.[.[.[.[.[.[.[.",
"[.[.[.[.[.[.[.[.[.[.[.[.'.`.A.s i u u u m U.'.].'.G.s u u u u m P.'.].].[.[.[.[.[.[.[.[.[.[.[.[.[.[.",
"[.[.[.[.[.[.[.[.[.[.[.[.[.[.E.H.F.F.D.F.P.`.].].].^.G.F.F.F.D.G.^.].].].[.[.[.[.[.[.[.[.[.[.[.[.[.[."
};
